<svg xmlns="http://www.w3.org/2000/svg" viewBox="0 0 205.82835 42.99577" height="42.99577" width="205.8284"><path d="m 156.02784,38.086113 0,-5.77125 0.81562,0 q 0.21375,0 0.29813,0.07875 0.0844,0.07875 0.1125,0.27 l 0.0844,0.6975 q 0.30938,-0.534375 0.72563,-0.84375 0.41625,-0.309375 0.93375,-0.309375 0.4275,0 0.70875,0.196875 l -0.18,1.040625 q -0.0169,0.10125 -0.0731,0.14625 -0.0563,0.03937 -0.15187,0.03937 -0.0844,0 -0.23063,-0.03937 -0.14625,-0.03937 -0.38812,-0.03937 -0.43313,0 -0.7425,0.241875 -0.30938,0.23625 -0.52313,0.6975 l 0,3.594375 -1.38937,0 z m -3.95227,-5.86125 q 0.64687,0 1.17,0.208125 0.52875,0.208125 0.9,0.590625 0.37125,0.3825 0.57375,0.93375 0.2025,0.55125 0.2025,1.231875 0,0.68625 -0.2025,1.2375 -0.2025,0.55125 -0.57375,0.939375 -0.37125,0.388125 -0.9,0.59625 -0.52313,0.208125 -1.17,0.208125 -0.64688,0 -1.17563,-0.208125 -0.52875,-0.208125 -0.90562,-0.59625 -0.37125,-0.388125 -0.57938,-0.939375 -0.2025,-0.55125 -0.2025,-1.2375 0,-0.680625 0.2025,-1.231875 0.20813,-0.55125 0.57938,-0.93375 0.37687,-0.3825 0.90562,-0.590625 0.52875,-0.208125 1.17563,-0.208125 z m 0,4.876875 q 0.72,0 1.06312,-0.48375 0.34875,-0.48375 0.34875,-1.4175 0,-0.93375 -0.34875,-1.423125 -0.34312,-0.489375 -1.06312,-0.489375 -0.73125,0 -1.08,0.495 -0.34875,0.489375 -0.34875,1.4175 0,0.928125 0.34875,1.4175 0.34875,0.48375 1.08,0.48375 z m -6.239,2.570625 q -0.0619,0.14625 -0.16313,0.219375 -0.0956,0.07875 -0.29812,0.07875 l -1.035,0 1.08,-2.311875 -2.33438,-5.34375 1.215,0 q 0.16875,0 0.25875,0.07875 0.09,0.07875 0.135,0.18 l 1.23188,2.9925 q 0.0619,0.14625 0.10687,0.30375 0.045,0.1575 0.0787,0.315 0.045,-0.163125 0.0956,-0.315 0.0563,-0.151875 0.11812,-0.309375 l 1.15875,-2.986875 q 0.045,-0.1125 0.14625,-0.185625 0.10688,-0.07312 0.23625,-0.07312 l 1.11375,0 -3.14437,7.3575 z m -3.21592,-1.58625 -0.62438,0 q -0.19687,0 -0.30937,-0.05625 -0.1125,-0.06188 -0.16875,-0.241875 l -0.12375,-0.410625 q -0.21938,0.196875 -0.43313,0.34875 -0.20812,0.14625 -0.43312,0.2475 -0.225,0.10125 -0.47813,0.151875 -0.25312,0.05063 -0.5625,0.05063 -0.36562,0 -0.675,-0.09562 -0.30937,-0.10125 -0.53437,-0.298125 -0.21938,-0.196875 -0.34313,-0.489375 -0.12375,-0.2925 -0.12375,-0.680625 0,-0.32625 0.16875,-0.64125 0.17438,-0.320625 0.57375,-0.57375 0.39938,-0.25875 1.06313,-0.4275 0.66375,-0.16875 1.64812,-0.19125 l 0,-0.3375 q 0,-0.579375 -0.2475,-0.855 -0.24187,-0.28125 -0.70875,-0.28125 -0.3375,0 -0.5625,0.07875 -0.225,0.07875 -0.39375,0.18 -0.16312,0.09563 -0.30375,0.174375 -0.14062,0.07875 -0.30937,0.07875 -0.14063,0 -0.24188,-0.07312 -0.10125,-0.07313 -0.16312,-0.18 l -0.25313,-0.444375 q 0.99563,-0.91125 2.40188,-0.91125 0.50625,0 0.9,0.16875 0.39937,0.163125 0.675,0.46125 0.27562,0.2925 0.41625,0.703125 0.14625,0.410625 0.14625,0.9 l 0,3.645 z m -2.7,-0.86625 q 0.21375,0 0.39375,-0.03937 0.18,-0.03937 0.3375,-0.118125 0.16312,-0.07875 0.30937,-0.19125 0.15188,-0.118125 0.30375,-0.275625 l 0,-0.973125 q -0.6075,0.02813 -1.01812,0.106875 -0.405,0.07312 -0.6525,0.19125 -0.2475,0.118125 -0.35438,0.275625 -0.10125,0.1575 -0.10125,0.343125 0,0.365625 0.21375,0.523125 0.21938,0.1575 0.56813,0.1575 z m -8.09701,-2.50875 q 0.0956,0.18 0.17437,0.376875 0.0844,0.19125 0.16313,0.388125 0.0788,-0.2025 0.16312,-0.399375 0.0844,-0.196875 0.18,-0.376875 l 2.4075,-4.505625 q 0.045,-0.08437 0.09,-0.135 0.0506,-0.05063 0.10688,-0.07313 0.0619,-0.0225 0.135,-0.02812 0.0731,-0.0056 0.17437,-0.0056 l 1.14188,0 0,8.13375 -1.33313,0 0,-5.25375 q 0,-0.14625 0.006,-0.320625 0.0112,-0.174375 0.0281,-0.354375 l -2.45812,4.6125 q -0.0844,0.1575 -0.21938,0.2475 -0.135,0.08437 -0.315,0.08437 l -0.20812,0 q -0.18,0 -0.315,-0.08437 -0.135,-0.09 -0.21938,-0.2475 l -2.49187,-4.629375 q 0.0225,0.185625 0.0281,0.365625 0.0113,0.174375 0.0113,0.32625 l 0,5.25375 -1.33312,0 0,-8.13375 1.14187,0 q 0.10125,0 0.17438,0.0056 0.0731,0.0056 0.12937,0.02812 0.0619,0.0225 0.1125,0.07313 0.0506,0.05063 0.0956,0.135 l 2.43,4.516875 0,0 z m -9.15715,2.52 q 0,-0.1575 0.0563,-0.2925 0.0619,-0.140625 0.16875,-0.241875 0.10687,-0.106875 0.25875,-0.163125 0.15187,-0.06188 0.33187,-0.06188 0.21375,0 0.37125,0.07875 0.1575,0.07312 0.26438,0.208125 0.10687,0.129375 0.1575,0.30375 0.0506,0.16875 0.0506,0.36 0,0.27 -0.0844,0.568125 -0.0787,0.298125 -0.23625,0.59625 -0.1575,0.298125 -0.38813,0.579375 -0.23062,0.28125 -0.52875,0.5175 l -0.24187,-0.219375 q -0.10125,-0.08438 -0.10125,-0.208125 0,-0.045 0.0281,-0.10125 0.0337,-0.05625 0.0787,-0.10125 0.0619,-0.0675 0.15188,-0.16875 0.09,-0.09563 0.18,-0.225 0.09,-0.12375 0.16312,-0.275625 0.0787,-0.14625 0.1125,-0.315 -0.17437,0 -0.32062,-0.06188 -0.14625,-0.0675 -0.25313,-0.18 -0.10125,-0.1125 -0.16312,-0.264375 -0.0563,-0.151875 -0.0563,-0.331875 z m -6.10155,0.855 0,-5.77125 0.84938,0 q 0.27,0 0.35437,0.253125 l 0.0956,0.455625 q 0.17437,-0.18 0.36562,-0.32625 0.19688,-0.14625 0.41063,-0.253125 0.21937,-0.106875 0.46687,-0.163125 0.2475,-0.05625 0.54,-0.05625 0.4725,0 0.83813,0.163125 0.36562,0.1575 0.6075,0.45 0.2475,0.286875 0.37125,0.691875 0.12937,0.399375 0.12937,0.883125 l 0,3.673125 -1.38937,0 0,-3.673125 q 0,-0.52875 -0.2475,-0.815625 -0.24188,-0.2925 -0.73125,-0.2925 -0.36,0 -0.675,0.163125 -0.315,0.163125 -0.59625,0.444375 l 0,4.17375 -1.38938,0 z m -3.95226,-5.86125 q 0.64687,0 1.17,0.208125 0.52875,0.208125 0.9,0.590625 0.37125,0.3825 0.57375,0.93375 0.2025,0.55125 0.2025,1.231875 0,0.68625 -0.2025,1.2375 -0.2025,0.55125 -0.57375,0.939375 -0.37125,0.388125 -0.9,0.59625 -0.52313,0.208125 -1.17,0.208125 -0.64688,0 -1.17563,-0.208125 -0.52875,-0.208125 -0.90562,-0.59625 -0.37125,-0.388125 -0.57938,-0.939375 -0.2025,-0.55125 -0.2025,-1.2375 0,-0.680625 0.2025,-1.231875 0.20813,-0.55125 0.57938,-0.93375 0.37687,-0.3825 0.90562,-0.590625 0.52875,-0.208125 1.17563,-0.208125 z m 0,4.876875 q 0.72,0 1.06312,-0.48375 0.34875,-0.48375 0.34875,-1.4175 0,-0.93375 -0.34875,-1.423125 -0.34312,-0.489375 -1.06312,-0.489375 -0.73125,0 -1.08,0.495 -0.34875,0.489375 -0.34875,1.4175 0,0.928125 0.34875,1.4175 0.34875,0.48375 1.08,0.48375 z m -4.94068,1.074375 q -0.74813,0 -1.15313,-0.421875 -0.405,-0.4275 -0.405,-1.175625 l 0,-3.223125 -0.585,0 q -0.1125,0 -0.19687,-0.07313 -0.0787,-0.07312 -0.0787,-0.219375 l 0,-0.55125 0.92812,-0.151875 0.2925,-1.575 q 0.0225,-0.1125 0.10125,-0.174375 0.0844,-0.06188 0.20813,-0.06188 l 0.72,0 0,1.816875 1.51875,0 0,0.99 -1.51875,0 0,3.1275 q 0,0.27 0.135,0.421875 0.135,0.151875 0.36,0.151875 0.12937,0 0.21375,-0.02813 0.09,-0.03375 0.15187,-0.0675 0.0675,-0.03375 0.11813,-0.06188 0.0506,-0.03375 0.10125,-0.03375 0.0619,0 0.10125,0.03375 0.0394,0.02813 0.0844,0.09 l 0.41625,0.675 q -0.30375,0.253125 -0.6975,0.3825 -0.39375,0.129375 -0.81562,0.129375 z m -3.47045,-8.44875 0,8.35875 -1.38938,0 0,-8.35875 1.38938,0 z m -3.0542,2.5875 0,5.77125 -1.389378,0 0,-5.77125 1.389378,0 z m 0.20812,-1.681875 q 0,0.18 -0.0731,0.3375 -0.0731,0.1575 -0.19688,0.275625 -0.11812,0.118125 -0.28125,0.19125 -0.16312,0.0675 -0.34875,0.0675 -0.18,0 -0.34312,-0.0675 -0.157503,-0.07313 -0.275628,-0.19125 -0.118125,-0.118125 -0.19125,-0.275625 -0.0675,-0.1575 -0.0675,-0.3375 0,-0.185625 0.0675,-0.34875 0.07313,-0.163125 0.19125,-0.28125 0.118125,-0.118125 0.275628,-0.185625 0.16312,-0.07313 0.34312,-0.07313 0.18563,0 0.34875,0.07313 0.16313,0.0675 0.28125,0.185625 0.12375,0.118125 0.19688,0.28125 0.0731,0.163125 0.0731,0.34875 z m -11.157713,7.453125 0,-5.77125 0.849375,0 q 0.27,0 0.354375,0.253125 l 0.09,0.4275 q 0.151875,-0.16875 0.315,-0.309375 0.16875,-0.140625 0.354375,-0.241875 0.19125,-0.10125 0.405,-0.1575 0.219375,-0.06188 0.478125,-0.06188 0.545625,0 0.894375,0.298125 0.354375,0.2925 0.52875,0.781875 0.135,-0.286875 0.3375,-0.489375 0.2025,-0.208125 0.444375,-0.3375 0.241875,-0.129375 0.511875,-0.19125 0.275625,-0.06188 0.55125,-0.06188 0.478125,0 0.849375,0.14625 0.37125,0.14625 0.624375,0.4275 0.253125,0.28125 0.3825,0.68625 0.135,0.405 0.135,0.928125 l 0,3.673125 -1.389375,0 0,-3.673125 q 0,-0.55125 -0.241875,-0.826875 -0.241875,-0.28125 -0.70875,-0.28125 -0.21375,0 -0.399375,0.07313 -0.18,0.07312 -0.320625,0.21375 -0.135,0.135 -0.21375,0.343125 -0.07875,0.208125 -0.07875,0.478125 l 0,3.673125 -1.395,0 0,-3.673125 q 0,-0.579375 -0.23625,-0.84375 -0.230625,-0.264375 -0.68625,-0.264375 -0.298125,0 -0.5625,0.151875 -0.25875,0.14625 -0.48375,0.405 l 0,4.224375 -1.389375,0 z m -1.366171,0 -0.624375,0 q -0.196875,0 -0.309375,-0.05625 -0.1125,-0.06188 -0.16875,-0.241875 l -0.12375,-0.410625 q -0.219375,0.196875 -0.433125,0.34875 -0.208125,0.14625 -0.433125,0.2475 -0.225,0.10125 -0.478125,0.151875 -0.253125,0.05063 -0.5625,0.05063 -0.365625,0 -0.675,-0.09562 -0.309375,-0.10125 -0.534375,-0.298125 -0.219375,-0.196875 -0.343125,-0.489375 -0.12375,-0.2925 -0.12375,-0.680625 0,-0.32625 0.16875,-0.64125 0.174375,-0.320625 0.57375,-0.57375 0.399375,-0.25875 1.063125,-0.4275 0.66375,-0.16875 1.648125,-0.19125 l 0,-0.3375 q 0,-0.579375 -0.2475,-0.855 -0.241875,-0.28125 -0.70875,-0.28125 -0.3375,0 -0.5625,0.07875 -0.225,0.07875 -0.39375,0.18 -0.163125,0.09563 -0.30375,0.174375 -0.140625,0.07875 -0.309375,0.07875 -0.140625,0 -0.241875,-0.07312 -0.10125,-0.07313 -0.163125,-0.18 l -0.253125,-0.444375 q 0.995625,-0.91125 2.401875,-0.91125 0.50625,0 0.9,0.16875 0.399375,0.163125 0.675,0.46125 0.275625,0.2925 0.41625,0.703125 0.14625,0.410625 0.14625,0.9 l 0,3.645 z m -2.7,-0.86625 q 0.21375,0 0.39375,-0.03937 0.18,-0.03937 0.3375,-0.118125 0.163125,-0.07875 0.309375,-0.19125 0.151875,-0.118125 0.30375,-0.275625 l 0,-0.973125 q -0.6075,0.02813 -1.018125,0.106875 -0.405,0.07312 -0.6525,0.19125 -0.2475,0.118125 -0.354375,0.275625 -0.10125,0.1575 -0.10125,0.343125 0,0.365625 0.21375,0.523125 0.219375,0.1575 0.568125,0.1575 z m -3.362696,0.86625 -1.524375,0 0,-3.555 -3.81375,0 0,3.555 -1.524375,0 0,-8.13375 1.524375,0 0,3.49875 3.81375,0 0,-3.49875 1.524375,0 0,8.13375 z m -15.510586,0 0,-5.77125 0.849375,0 q 0.27,0 0.354375,0.253125 l 0.09562,0.455625 q 0.174375,-0.18 0.365625,-0.32625 0.196875,-0.14625 0.410625,-0.253125 0.219375,-0.106875 0.466875,-0.163125 0.2475,-0.05625 0.54,-0.05625 0.4725,0 0.838125,0.163125 0.365625,0.1575 0.6075,0.45 0.2475,0.286875 0.37125,0.691875 0.129375,0.399375 0.129375,0.883125 l 0,3.673125 -1.389375,0 0,-3.673125 q 0,-0.52875 -0.2475,-0.815625 -0.241875,-0.2925 -0.73125,-0.2925 -0.36,0 -0.675,0.163125 -0.315,0.163125 -0.59625,0.444375 l 0,4.17375 -1.389375,0 z m -6.394043,0 0,-8.35875 1.389375,0 0,3.211875 q 0.3375,-0.320625 0.7425,-0.5175 0.405,-0.196875 0.950625,-0.196875 0.4725,0 0.838125,0.163125 0.365625,0.1575 0.6075,0.45 0.2475,0.286875 0.37125,0.691875 0.129375,0.399375 0.129375,0.883125 l 0,3.673125 -1.389375,0 0,-3.673125 q 0,-0.52875 -0.2475,-0.815625 -0.241875,-0.2925 -0.73125,-0.2925 -0.36,0 -0.675,0.163125 -0.315,0.163125 -0.59625,0.444375 l 0,4.17375 -1.389375,0 z m -3.952265,-5.86125 q 0.646875,0 1.17,0.208125 0.52875,0.208125 0.9,0.590625 0.37125,0.3825 0.57375,0.93375 0.2025,0.55125 0.2025,1.231875 0,0.68625 -0.2025,1.2375 -0.2025,0.55125 -0.57375,0.939375 -0.37125,0.388125 -0.9,0.59625 -0.523125,0.208125 -1.17,0.208125 -0.646875,0 -1.175625,-0.208125 -0.52875,-0.208125 -0.905625,-0.59625 -0.37125,-0.388125 -0.579375,-0.939375 -0.2025,-0.55125 -0.2025,-1.2375 0,-0.680625 0.2025,-1.231875 0.208125,-0.55125 0.579375,-0.93375 0.376875,-0.3825 0.905625,-0.590625 0.52875,-0.208125 1.175625,-0.208125 z m 0,4.876875 q 0.72,0 1.063125,-0.48375 0.34875,-0.48375 0.34875,-1.4175 0,-0.93375 -0.34875,-1.423125 -0.343125,-0.489375 -1.063125,-0.489375 -0.73125,0 -1.08,0.495 -0.34875,0.489375 -0.34875,1.4175 0,0.928125 0.34875,1.4175 0.34875,0.48375 1.08,0.48375 z m -4.011153,-1.906875 q 0,0.68625 -0.16875,1.2375 -0.16875,0.55125 -0.50625,0.939375 -0.331875,0.388125 -0.8325,0.59625 -0.500625,0.208125 -1.164375,0.208125 -0.30375,0 -0.59625,-0.03937 -0.2925,-0.03375 -0.613125,-0.1125 l 0.07875,-0.9 q 0.01125,-0.12375 0.09,-0.196875 0.08437,-0.07875 0.241875,-0.07875 0.09562,0 0.2475,0.03937 0.1575,0.03937 0.39375,0.03937 0.320625,0 0.568125,-0.09 0.2475,-0.09563 0.410625,-0.298125 0.16875,-0.2025 0.253125,-0.523125 0.08438,-0.32625 0.08438,-0.7875 l 0,-5.27625 1.513125,0 0,5.2425 z m 148.912847,-12.045315 -1.6582,0 -3.0203,-7.595168 1.51755,0 q 0.19987,0 0.33312,0.09624 0.14065,0.09624 0.19247,0.244289 l 1.46573,4.056678 q 0.12585,0.35533 0.20728,0.695854 0.0888,0.340524 0.15546,0.681048 0.0666,-0.340524 0.14805,-0.681048 0.0888,-0.340524 0.22208,-0.695854 l 1.50275,-4.056678 q 0.0518,-0.148054 0.18507,-0.244289 0.13324,-0.09624 0.31831,-0.09624 l 1.44353,0 -3.0129,7.595168 z m -8.77497,-7.713611 q 0.85131,0 1.53976,0.2739 0.69585,0.2739 1.18443,0.777283 0.48858,0.503384 0.75508,1.228848 0.26649,0.725464 0.26649,1.621191 0,0.903129 -0.26649,1.628593 -0.2665,0.725464 -0.75508,1.23625 -0.48858,0.510786 -1.18443,0.784686 -0.68845,0.2739 -1.53976,0.2739 -0.85131,0 -1.54716,-0.2739 -0.69586,-0.2739 -1.19184,-0.784686 -0.48858,-0.510786 -0.76248,-1.23625 -0.26649,-0.725464 -0.26649,-1.628593 0,-0.895727 0.26649,-1.621191 0.2739,-0.725464 0.76248,-1.228848 0.49598,-0.503383 1.19184,-0.777283 0.69585,-0.2739 1.54716,-0.2739 z m 0,6.418139 q 0.94754,0 1.39911,-0.636632 0.45897,-0.636632 0.45897,-1.86548 0,-1.228848 -0.45897,-1.872882 -0.45157,-0.644035 -1.39911,-0.644035 -0.96235,0 -1.42132,0.651437 -0.45897,0.644035 -0.45897,1.86548 0,1.221445 0.45897,1.86548 0.45897,0.636632 1.42132,0.636632 z m -8.27737,-6.432944 q 0.48857,0 0.91793,0.103638 0.42936,0.09624 0.78469,0.288705 l 2.18379,0 0,0.681048 q 0,0.170262 -0.0888,0.266497 -0.0888,0.09624 -0.30351,0.133249 l -0.68105,0.125845 q 0.074,0.192471 0.11104,0.407149 0.0444,0.214678 0.0444,0.451564 0,0.562605 -0.22949,1.021572 -0.22208,0.451565 -0.62182,0.769881 -0.39235,0.318316 -0.94014,0.495981 -0.5404,0.170262 -1.17703,0.170262 -0.42936,0 -0.83651,-0.08143 -0.35533,0.214678 -0.35533,0.481175 0,0.229484 0.20728,0.340524 0.21468,0.103638 0.5552,0.148054 0.34793,0.04442 0.78469,0.05922 0.43675,0.0074 0.89572,0.04442 0.45897,0.03701 0.89573,0.133249 0.43676,0.08883 0.77728,0.288705 0.34793,0.199873 0.5552,0.547799 0.21468,0.340524 0.21468,0.880921 0,0.503384 -0.25169,0.977156 -0.24429,0.473773 -0.71806,0.843908 -0.46637,0.370135 -1.14742,0.592216 -0.68105,0.229483 -1.55457,0.229483 -0.86611,0 -1.50274,-0.170262 -0.63664,-0.162859 -1.05859,-0.444162 -0.41455,-0.273899 -0.62183,-0.636632 -0.20727,-0.362732 -0.20727,-0.755075 0,-0.532994 0.32572,-0.895726 0.32572,-0.362732 0.90313,-0.57741 -0.28131,-0.155457 -0.45157,-0.414551 -0.17026,-0.259095 -0.17026,-0.673646 0,-0.170262 0.0592,-0.347927 0.0592,-0.185067 0.17767,-0.362732 0.12584,-0.177665 0.31091,-0.333121 0.18507,-0.16286 0.43676,-0.288705 -0.57741,-0.310914 -0.91053,-0.829102 -0.32572,-0.518189 -0.32572,-1.214043 0,-0.562605 0.22208,-1.014169 0.22948,-0.458967 0.62923,-0.777283 0.40715,-0.325719 0.95495,-0.495981 0.5552,-0.170262 1.20664,-0.170262 z m 2.00613,8.06894 q 0,-0.222081 -0.13325,-0.362733 -0.13325,-0.140651 -0.36273,-0.214678 -0.22949,-0.08143 -0.5404,-0.118443 -0.30351,-0.03701 -0.65144,-0.05182 -0.34052,-0.02221 -0.71066,-0.03701 -0.36273,-0.02221 -0.70325,-0.06663 -0.31092,0.170263 -0.50339,0.407149 -0.18506,0.229483 -0.18506,0.532994 0,0.199873 0.0962,0.370135 0.10364,0.177665 0.31832,0.30351 0.22208,0.125846 0.57001,0.192471 0.34792,0.07403 0.85131,0.07403 0.51078,0 0.88092,-0.08143 0.37013,-0.07403 0.60702,-0.214678 0.24429,-0.133249 0.35533,-0.325719 0.11104,-0.185067 0.11104,-0.407148 z m -2.00613,-4.323175 q 0.34052,0 0.59221,-0.08883 0.25169,-0.09624 0.41455,-0.259094 0.17027,-0.16286 0.25169,-0.392343 0.0888,-0.229484 0.0888,-0.503384 0,-0.562605 -0.34053,-0.888323 -0.33312,-0.333122 -1.00676,-0.333122 -0.67365,0 -1.01417,0.333122 -0.33312,0.325718 -0.33312,0.888323 0,0.266498 0.0814,0.495981 0.0888,0.229484 0.25169,0.399746 0.17026,0.162859 0.42195,0.259094 0.25909,0.08883 0.59222,0.08883 z m -6.41907,2.975884 q 0,-0.229484 0.0814,-0.436759 0.0888,-0.207276 0.23689,-0.35533 0.15546,-0.148054 0.36273,-0.236886 0.20728,-0.08883 0.44416,-0.08883 0.22949,0 0.43676,0.08883 0.20728,0.08883 0.35533,0.236886 0.14805,0.148054 0.23689,0.35533 0.0888,0.207275 0.0888,0.436759 0,0.236886 -0.0888,0.444162 -0.0888,0.199872 -0.23689,0.347926 -0.14805,0.148054 -0.35533,0.229484 -0.20727,0.08883 -0.43676,0.08883 -0.23688,0 -0.44416,-0.08883 -0.20727,-0.08143 -0.36273,-0.229484 -0.14806,-0.148054 -0.23689,-0.347926 -0.0814,-0.207276 -0.0814,-0.444162 z m -7.97802,1.006767 0,-7.595168 1.1178,0 q 0.35533,0 0.46637,0.333122 l 0.12585,0.599618 q 0.22948,-0.236886 0.48118,-0.429356 0.25909,-0.19247 0.54039,-0.333122 0.28871,-0.140651 0.61443,-0.214678 0.32571,-0.07403 0.71066,-0.07403 0.62182,0 1.103,0.214678 0.48117,0.207276 0.79949,0.592216 0.32572,0.377538 0.48858,0.910532 0.17026,0.525591 0.17026,1.162223 l 0,4.833962 -1.82847,0 0,-4.833962 q 0,-0.695853 -0.32572,-1.073391 -0.31831,-0.38494 -0.96235,-0.38494 -0.47377,0 -0.88832,0.214678 -0.41455,0.214678 -0.78469,0.584813 l 0,5.492802 -1.82846,0 z m -2.07253,-7.595168 0,7.595168 -1.82846,0 0,-7.595168 1.82846,0 z m 0.2739,-2.213406 q 0,0.236886 -0.0962,0.444162 -0.0962,0.207275 -0.2591,0.362732 -0.15545,0.155457 -0.37013,0.251692 -0.21468,0.08883 -0.45897,0.08883 -0.23688,0 -0.45156,-0.08883 -0.20728,-0.09624 -0.36273,-0.251692 -0.15546,-0.155457 -0.2517,-0.362732 -0.0888,-0.207276 -0.0888,-0.444162 0,-0.244289 0.0888,-0.458967 0.0962,-0.214678 0.2517,-0.370135 0.15545,-0.155457 0.36273,-0.244289 0.21468,-0.09624 0.45156,-0.09624 0.24429,0 0.45897,0.09624 0.21468,0.08883 0.37013,0.244289 0.16286,0.155457 0.2591,0.370135 0.0962,0.214678 0.0962,0.458967 z m -6.01191,8.801807 q 0,-0.229484 0.0814,-0.436759 0.0888,-0.207276 0.23688,-0.35533 0.15546,-0.148054 0.36274,-0.236886 0.20727,-0.08883 0.44416,-0.08883 0.22948,0 0.43676,0.08883 0.20727,0.08883 0.35533,0.236886 0.14805,0.148054 0.23688,0.35533 0.0888,0.207275 0.0888,0.436759 0,0.236886 -0.0888,0.444162 -0.0888,0.199872 -0.23688,0.347926 -0.14806,0.148054 -0.35533,0.229484 -0.20728,0.08883 -0.43676,0.08883 -0.23689,0 -0.44416,-0.08883 -0.20728,-0.08143 -0.36274,-0.229484 -0.14805,-0.148054 -0.23688,-0.347926 -0.0814,-0.207276 -0.0814,-0.444162 z" style="fill:#447aa8;" id="path4495" /><path style="fill:#315da6" d="m 152.26907,23.1506 0,-10.15176 1.49407,0 q 0.47493,0 0.62335,0.44526 l 0.16821,0.80145 q 0.30673,-0.31662 0.64314,-0.57388 0.34631,-0.25726 0.7223,-0.44525 0.38589,-0.188 0.82124,-0.28694 0.43536,-0.099 0.94988,-0.099 0.83113,0 1.47428,0.28694 0.64314,0.27705 1.0686,0.79156 0.43536,0.50462 0.65304,1.21703 0.22757,0.70251 0.22757,1.55343 l 0,6.46111 -2.44394,0 0,-6.46111 q 0,-0.93008 -0.43536,-1.4347 -0.42546,-0.51451 -1.28628,-0.51451 -0.63325,0 -1.18734,0.28694 -0.55409,0.28694 -1.04882,0.78166 l 0,7.34172 -2.44394,0 z m -6.9521,-10.3101 q 1.13787,0 2.05806,0.3661 0.93008,0.36609 1.58312,1.03892 0.65304,0.67283 1.00924,1.64249 0.3562,0.96966 0.3562,2.16689 0,1.20713 -0.3562,2.1768 -0.3562,0.96966 -1.00924,1.65238 -0.65304,0.68272 -1.58312,1.04882 -0.92019,0.36609 -2.05806,0.36609 -1.13787,0 -2.06795,-0.36609 -0.93008,-0.3661 -1.59301,-1.04882 -0.65304,-0.68272 -1.01914,-1.65238 -0.3562,-0.96967 -0.3562,-2.1768 0,-1.19723 0.3562,-2.16689 0.3661,-0.96966 1.01914,-1.64249 0.66293,-0.67283 1.59301,-1.03892 0.93008,-0.3661 2.06795,-0.3661 z m 0,8.57854 q 1.2665,0 1.87006,-0.85093 0.61346,-0.85093 0.61346,-2.49342 0,-1.64248 -0.61346,-2.50331 -0.60356,-0.86082 -1.87006,-0.86082 -1.28628,0 -1.89974,0.87072 -0.61346,0.86082 -0.61346,2.49341 0,1.6326 0.61346,2.49342 0.61346,0.85093 1.89974,0.85093 z m -8.69077,1.88985 q -1.31597,0 -2.02838,-0.74209 -0.7124,-0.75198 -0.7124,-2.06795 l 0,-5.66955 -1.02903,0 q -0.19789,0 -0.34631,-0.12863 -0.13852,-0.12863 -0.13852,-0.38589 l 0,-0.96966 1.63259,-0.26715 0.51452,-2.77046 q 0.0396,-0.19789 0.1781,-0.30673 0.14842,-0.10884 0.3661,-0.10884 l 1.26649,0 0,3.19592 2.67152,0 0,1.74144 -2.67152,0 0,5.50134 q 0,0.47494 0.23747,0.74209 0.23747,0.26715 0.63325,0.26715 0.22757,0 0.37599,-0.0495 0.15831,-0.0594 0.26715,-0.11874 0.11874,-0.0594 0.20779,-0.10884 0.0891,-0.0594 0.1781,-0.0594 0.10884,0 0.1781,0.0594 0.0693,0.0495 0.14842,0.15832 l 0.73219,1.18734 q -0.5343,0.44525 -1.22692,0.67282 -0.69261,0.22758 -1.4347,0.22758 z M 126.56194,12.82071 q 0.65304,0 1.22692,0.13853 0.57388,0.12862 1.04882,0.38588 l 2.91888,0 0,0.9103 q 0,0.22757 -0.11874,0.3562 -0.11873,0.12863 -0.40567,0.1781 l -0.91029,0.16821 q 0.0989,0.25725 0.14841,0.54419 0.0594,0.28694 0.0594,0.60357 0,0.75198 -0.30673,1.36544 -0.29684,0.60356 -0.83114,1.02903 -0.52441,0.42546 -1.2566,0.66293 -0.7223,0.22757 -1.57323,0.22757 -0.57388,0 -1.11808,-0.10884 -0.47493,0.28694 -0.47493,0.64315 0,0.30673 0.27704,0.45514 0.28695,0.13853 0.74209,0.19789 0.46504,0.0594 1.04882,0.0792 0.58378,0.01 1.19723,0.0594 0.61346,0.0495 1.19724,0.1781 0.58378,0.11873 1.03892,0.38588 0.46504,0.26715 0.74209,0.7322 0.28694,0.45514 0.28694,1.17744 0,0.67283 -0.33641,1.30608 -0.32652,0.63324 -0.95977,1.12797 -0.62335,0.49473 -1.53365,0.79156 -0.91029,0.30673 -2.07784,0.30673 -1.15766,0 -2.00859,-0.22757 -0.85092,-0.21768 -1.41491,-0.59367 -0.55409,-0.3661 -0.83114,-0.85093 -0.27705,-0.48483 -0.27705,-1.00924 0,-0.7124 0.43536,-1.19724 0.43536,-0.48483 1.20713,-0.77177 -0.37599,-0.20778 -0.60356,-0.55409 -0.22758,-0.34631 -0.22758,-0.9004 0,-0.22757 0.0792,-0.46504 0.0792,-0.24736 0.23747,-0.48483 0.1682,-0.23747 0.41557,-0.44525 0.24736,-0.21768 0.58377,-0.38589 -0.77177,-0.41557 -1.21702,-1.10818 -0.43536,-0.69262 -0.43536,-1.6227 0,-0.75198 0.29684,-1.35555 0.30673,-0.61346 0.84103,-1.03892 0.5442,-0.43536 1.27639,-0.66293 0.74209,-0.22758 1.6128,-0.22758 z m 2.68141,10.78501 q 0,-0.29683 -0.1781,-0.48483 -0.1781,-0.18799 -0.48483,-0.28694 -0.30673,-0.10884 -0.7223,-0.15831 -0.40567,-0.0495 -0.87071,-0.0693 -0.45515,-0.0297 -0.94988,-0.0495 -0.48483,-0.0297 -0.93997,-0.089 -0.41557,0.22758 -0.67283,0.5442 -0.24736,0.30673 -0.24736,0.71241 0,0.26715 0.12863,0.49472 0.13852,0.23747 0.42546,0.40568 0.29684,0.1682 0.76188,0.25725 0.46504,0.099 1.13787,0.099 0.68272,0 1.17744,-0.10884 0.49473,-0.099 0.81135,-0.28694 0.32652,-0.1781 0.47494,-0.43536 0.14841,-0.24736 0.14841,-0.5442 z m -2.68141,-5.77839 q 0.45515,0 0.79156,-0.11873 0.33642,-0.12863 0.5541,-0.34631 0.22757,-0.21768 0.33641,-0.52441 0.11873,-0.30673 0.11873,-0.67283 0,-0.75198 -0.45514,-1.18734 -0.44526,-0.44525 -1.34566,-0.44525 -0.9004,0 -1.35554,0.44525 -0.44526,0.43536 -0.44526,1.18734 0,0.35621 0.10884,0.66294 0.11874,0.30673 0.33642,0.5343 0.22757,0.21768 0.56398,0.34631 0.34631,0.11873 0.79156,0.11873 z m -14.75981,5.32324 0,-10.15176 1.49407,0 q 0.47493,0 0.62335,0.44526 l 0.16821,0.80145 q 0.30673,-0.31662 0.64314,-0.57388 0.34631,-0.25726 0.7223,-0.44525 0.38588,-0.188 0.82124,-0.28694 0.43536,-0.099 0.94987,-0.099 0.83114,0 1.47429,0.28694 0.64314,0.27705 1.0686,0.79156 0.43536,0.50462 0.65304,1.21703 0.22757,0.70251 0.22757,1.55343 l 0,6.46111 -2.44394,0 0,-6.46111 q 0,-0.93008 -0.43536,-1.4347 -0.42546,-0.51451 -1.28628,-0.51451 -0.63325,0 -1.18734,0.28694 -0.5541,0.28694 -1.04882,0.78166 l 0,7.34172 -2.44394,0 z m -2.77016,-10.15176 0,10.15176 -2.44394,0 0,-10.15176 2.44394,0 z m 0.3661,-2.95845 q 0,0.31662 -0.12863,0.59367 -0.12863,0.27704 -0.3463,0.48483 -0.20779,0.20778 -0.49473,0.33641 -0.28694,0.11874 -0.61346,0.11874 -0.31662,0 -0.60356,-0.11874 -0.27705,-0.12863 -0.48483,-0.33641 -0.20779,-0.20779 -0.33642,-0.48483 -0.11873,-0.27705 -0.11873,-0.59367 0,-0.32652 0.11873,-0.61346 0.12863,-0.28694 0.33642,-0.49473 0.20778,-0.20778 0.48483,-0.32652 0.28694,-0.12862 0.60356,-0.12862 0.32652,0 0.61346,0.12862 0.28694,0.11874 0.49473,0.32652 0.21767,0.20779 0.3463,0.49473 0.12863,0.28694 0.12863,0.61346 z m -19.626683,13.11021 0,-10.15176 1.49407,0 q 0.474936,0 0.623354,0.44526 l 0.158312,0.75198 q 0.267151,-0.29684 0.554092,-0.5442 0.296835,-0.24736 0.623354,-0.42546 0.336413,-0.1781 0.712404,-0.27705 0.385886,-0.10884 0.841033,-0.10884 0.959767,0 1.573226,0.52441 0.623354,0.51451 0.930085,1.37534 0.23747,-0.50462 0.59367,-0.86083 0.35621,-0.36609 0.78167,-0.59367 0.42546,-0.22757 0.9004,-0.33641 0.484833,-0.10884 0.969663,-0.10884 0.84103,0 1.49407,0.25726 0.65304,0.25726 1.09829,0.75198 0.44525,0.49473 0.67283,1.20713 0.23746,0.7124 0.23746,1.63259 l 0,6.46111 -2.44394,0 0,-6.46111 q 0,-0.96966 -0.42546,-1.45449 -0.42546,-0.49472 -1.246713,-0.49472 -0.37599,0 -0.70251,0.12862 -0.31662,0.12863 -0.56399,0.376 -0.23746,0.23746 -0.37599,0.60356 -0.13852,0.3661 -0.13852,0.84103 l 0,6.46111 -2.453841,0 0,-6.46111 q 0,-1.01913 -0.415569,-1.48417 -0.405675,-0.46504 -1.20713,-0.46504 -0.524409,0 -0.98945,0.26715 -0.455147,0.25725 -0.850928,0.7124 l 0,7.43077 -2.443942,0 z m -6.95202,-10.31 q 1.137868,0 2.058057,0.3661 0.930083,0.36609 1.583121,1.03892 0.653037,0.67283 1.009239,1.64249 0.356202,0.96966 0.356202,2.16689 0,1.20713 -0.356202,2.1768 -0.356202,0.96966 -1.009239,1.65238 -0.653038,0.68272 -1.583121,1.04882 -0.920189,0.36609 -2.058057,0.36609 -1.137868,0 -2.067951,-0.36609 -0.930083,-0.3661 -1.593015,-1.04882 -0.653037,-0.68272 -1.019134,-1.65238 -0.356202,-0.96967 -0.356202,-2.1768 0,-1.19723 0.356202,-2.16689 0.366097,-0.96966 1.019134,-1.64249 0.662932,-0.67283 1.593015,-1.03892 0.930083,-0.3661 2.067951,-0.3661 z m 0,8.57854 q 1.266497,0 1.870061,-0.85093 0.61346,-0.85093 0.61346,-2.49342 0,-1.64248 -0.61346,-2.50331 -0.603564,-0.86082 -1.870061,-0.86082 -1.286285,0 -1.899744,0.87072 -0.61346,0.86082 -0.61346,2.49341 0,1.6326 0.61346,2.49342 0.613459,0.85093 1.899744,0.85093 z m -11.28592,-8.5785 q 1.137868,0 2.058057,0.3661 0.930083,0.36609 1.58312,1.03892 0.653038,0.67283 1.00924,1.64249 0.356202,0.96966 0.356202,2.16689 0,1.20713 -0.356202,2.1768 -0.356202,0.96966 -1.00924,1.65238 -0.653037,0.68272 -1.58312,1.04882 -0.920189,0.36609 -2.058057,0.36609 -1.137868,0 -2.067951,-0.36609 -0.930083,-0.3661 -1.593015,-1.04882 -0.653037,-0.68272 -1.019134,-1.65238 -0.356202,-0.96967 -0.356202,-2.1768 0,-1.19723 0.356202,-2.16689 0.366097,-0.96966 1.019134,-1.64249 0.662932,-0.67283 1.593015,-1.03892 0.930083,-0.3661 2.067951,-0.3661 z m 0,8.57854 q 1.266497,0 1.870061,-0.85093 0.61346,-0.85093 0.61346,-2.49342 0,-1.64248 -0.61346,-2.50331 -0.603564,-0.86082 -1.870061,-0.86082 -1.286285,0 -1.899745,0.87072 -0.613459,0.86082 -0.613459,2.49341 0,1.6326 0.613459,2.49342 0.61346,0.85093 1.899745,0.85093 z m -7.103944,-12.9717 0,14.70323 -2.443942,0 0,-14.70323 2.443942,0 z m -15.33432,14.70323 0,-14.30745 4.937357,0 q 1.40502,0 2.39447,0.26715 0.999345,0.26716 1.632593,0.76188 0.643143,0.49473 0.939978,1.19724 0.296835,0.70251 0.296835,1.58312 0,0.50462 -0.148417,0.96966 -0.148418,0.45514 -0.465042,0.86082 -0.30673,0.39578 -0.79156,0.7223 -0.474936,0.32652 -1.137868,0.55409 2.948562,0.66293 2.948562,3.18603 0,0.91029 -0.346308,1.68207 -0.346307,0.77177 -1.009239,1.33575 -0.662932,0.5541 -1.632593,0.87072 -0.969661,0.31662 -2.216369,0.31662 l -5.402399,0 z m 2.661622,-6.27311 0,4.19527 2.701199,0 q 0.742088,0 1.236813,-0.1781 0.50462,-0.1781 0.801455,-0.47494 0.306729,-0.29683 0.435358,-0.69261 0.138523,-0.39578 0.138523,-0.84104 0,-0.46504 -0.148418,-0.83114 -0.148417,-0.37599 -0.465041,-0.63324 -0.316624,-0.26715 -0.81135,-0.40568 -0.494725,-0.13852 -1.197234,-0.13852 l -2.691305,0 z m 0,-1.84038 2.127318,0 q 1.355547,0 2.058057,-0.49472 0.702509,-0.49473 0.702509,-1.57323 0,-1.11808 -0.633248,-1.59302 -0.633248,-0.47493 -1.978901,-0.47493 l -2.275735,0 0,4.1359 z m -16.21313,-4.87182 2.473268,-2.47327 -2.760928,0 0,-2.76072 -2.473056,2.47328 -2.500179,-2.50018 0,7.80872 7.808719,0 -2.547831,-2.54783 z m 6.452192,7.42828 -3.904359,3.90436 3.904359,3.90436 -7.808718,0 3.904359,3.90436 -7.808719,0 -3.904359,-3.90436 3.904359,-3.90436 -3.904359,-3.90436 3.904359,-3.90436 7.808719,0 -3.904359,3.90436 7.808718,0 z m -3.904359,12.68917 -7.808719,0 0,7.80872 2.547831,-2.54783 2.473271,2.47327 0,-2.76093 2.760716,0 -2.473271,-2.47306 2.500178,-2.50017 z m -12.68917,11.71308 -3.90436,-3.90436 -3.904359,3.90436 0,-7.80872 -3.90436,3.90436 0,-7.80872 3.90436,-3.90436 3.904359,3.90436 3.90436,-3.90436 3.904359,3.90436 0,7.80872 -3.904359,-3.90436 0,7.80872 z m -12.68917,-11.71308 -7.808719,0 2.547831,2.54783 -2.473269,2.47327 2.760822,0 0,2.76072 2.473269,-2.47327 c 0,0 2.500066,2.50017 2.500066,2.50017 l 0,-7.80872 z m -11.71308,-4.88045 3.904359,-3.90436 -3.904359,-3.90436 7.808719,0 -3.904359,-3.90436 7.808719,0 3.904359,3.90436 -3.904359,3.90436 3.904359,3.90436 -3.904359,3.90436 -7.808719,0 3.904359,-3.90436 -7.808719,0 z M 10.165333,7.45232 7.692169,4.97905 l 0,2.76093 -2.760822,0 2.47327,2.47306 -2.500172,2.50017 7.808718,0 0,-7.80872 -2.547831,2.54783 z m 7.428283,-6.45219 3.904359,3.90436 3.90436,-3.90436 0,7.80872 3.904359,-3.90436 0,7.80872 -3.904359,3.90435 -3.90436,-3.90435 -3.904359,3.90435 -3.90436,-3.90435 0,-7.80872 3.90436,3.90436 0,-7.80872 z" /></svg>
