<svg xmlns:rdf="http://www.w3.org/1999/02/22-rdf-syntax-ns#" xmlns="http://www.w3.org/2000/svg" xml:space="preserve" viewBox="0 0 205.82835 42.99577" height="42.99577" width="205.8284" version="1.1" xmlns:cc="http://creativecommons.org/ns#" xmlns:dc="http://purl.org/dc/elements/1.1/"><g fill="#315da6" transform="translate(-2.752433 -113.4505)"><path fill="#315da6" d="m155.0215 136.6011v-10.15176h1.49407q0.47493 0 0.62335 0.44526l0.16821 0.80145q0.30673-0.31662 0.64314-0.57388 0.34631-0.25726 0.7223-0.44525 0.38589-0.188 0.82124-0.28694 0.43536-0.099 0.94988-0.099 0.83113 0 1.47428 0.28694 0.64314 0.27705 1.0686 0.79156 0.43536 0.50462 0.65304 1.21703 0.22757 0.70251 0.22757 1.55343v6.46111h-2.44394v-6.46111q0-0.93008-0.43536-1.4347-0.42546-0.51451-1.28628-0.51451-0.63325 0-1.18734 0.28694t-1.04882 0.78166v7.34172h-2.44394zm-6.9521-10.3101q1.13787 0 2.05806 0.3661 0.93008 0.36609 1.58312 1.03892t1.00924 1.64249 0.3562 2.16689q0 1.20713-0.3562 2.1768-0.3562 0.96966-1.00924 1.65238t-1.58312 1.04882q-0.92019 0.36609-2.05806 0.36609t-2.06795-0.36609q-0.93008-0.3661-1.59301-1.04882-0.65304-0.68272-1.01914-1.65238-0.3562-0.96967-0.3562-2.1768 0-1.19723 0.3562-2.16689 0.3661-0.96966 1.01914-1.64249 0.66293-0.67283 1.59301-1.03892 0.93008-0.3661 2.06795-0.3661zm0 8.57854q1.2665 0 1.87006-0.85093 0.61346-0.85093 0.61346-2.49342 0-1.64248-0.61346-2.50331-0.60356-0.86082-1.87006-0.86082-1.28628 0-1.89974 0.87072-0.61346 0.86082-0.61346 2.49341 0 1.6326 0.61346 2.49342 0.61346 0.85093 1.89974 0.85093zm-8.69077 1.88985q-1.31597 0-2.02838-0.74209-0.7124-0.75198-0.7124-2.06795v-5.66955h-1.02903q-0.19789 0-0.34631-0.12863-0.13852-0.12863-0.13852-0.38589v-0.96966l1.63259-0.26715 0.51452-2.77046q0.0396-0.19789 0.1781-0.30673 0.14842-0.10884 0.3661-0.10884h1.26649v3.19592h2.67152v1.74144h-2.67152v5.50134q0 0.47494 0.23747 0.74209t0.63325 0.26715q0.22757 0 0.37599-0.0495 0.15831-0.0594 0.26715-0.11874 0.11874-0.0594 0.20779-0.10884 0.0891-0.0594 0.1781-0.0594 0.10884 0 0.1781 0.0594 0.0693 0.0495 0.14842 0.15832l0.73219 1.18734q-0.5343 0.44525-1.22692 0.67282-0.69261 0.22758-1.4347 0.22758zm-10.06426-10.48818q0.65304 0 1.22692 0.13853 0.57388 0.12862 1.04882 0.38588h2.91888v0.9103q0 0.22757-0.11874 0.3562-0.11873 0.12863-0.40567 0.1781l-0.91029 0.16821q0.0989 0.25725 0.14841 0.54419 0.0594 0.28694 0.0594 0.60357 0 0.75198-0.30673 1.36544-0.29684 0.60356-0.83114 1.02903-0.52441 0.42546-1.2566 0.66293-0.7223 0.22757-1.57323 0.22757-0.57388 0-1.11808-0.10884-0.47493 0.28694-0.47493 0.64315 0 0.30673 0.27704 0.45514 0.28695 0.13853 0.74209 0.19789 0.46504 0.0594 1.04882 0.0792 0.58378 0.01 1.19723 0.0594 0.61346 0.0495 1.19724 0.1781 0.58378 0.11873 1.03892 0.38588 0.46504 0.26715 0.74209 0.7322 0.28694 0.45514 0.28694 1.17744 0 0.67283-0.33641 1.30608-0.32652 0.63324-0.95977 1.12797-0.62335 0.49473-1.53365 0.79156-0.91029 0.30673-2.07784 0.30673-1.15766 0-2.00859-0.22757-0.85092-0.21768-1.41491-0.59367-0.55409-0.3661-0.83114-0.85093t-0.27705-1.00924q0-0.7124 0.43536-1.19724 0.43536-0.48483 1.20713-0.77177-0.37599-0.20778-0.60356-0.55409-0.22758-0.34631-0.22758-0.9004 0-0.22757 0.0792-0.46504 0.0792-0.24736 0.23747-0.48483 0.1682-0.23747 0.41557-0.44525 0.24736-0.21768 0.58377-0.38589-0.77177-0.41557-1.21702-1.10818-0.43536-0.69262-0.43536-1.6227 0-0.75198 0.29684-1.35555 0.30673-0.61346 0.84103-1.03892 0.5442-0.43536 1.27639-0.66293 0.74209-0.22758 1.6128-0.22758zm2.68141 10.78501q0-0.29683-0.1781-0.48483-0.1781-0.18799-0.48483-0.28694-0.30673-0.10884-0.7223-0.15831-0.40567-0.0495-0.87071-0.0693-0.45515-0.0297-0.94988-0.0495-0.48483-0.0297-0.93997-0.089-0.41557 0.22758-0.67283 0.5442-0.24736 0.30673-0.24736 0.71241 0 0.26715 0.12863 0.49472 0.13852 0.23747 0.42546 0.40568 0.29684 0.1682 0.76188 0.25725 0.46504 0.099 1.13787 0.099 0.68272 0 1.17744-0.10884 0.49473-0.099 0.81135-0.28694 0.32652-0.1781 0.47494-0.43536 0.14841-0.24736 0.14841-0.5442zm-2.68141-5.77839q0.45515 0 0.79156-0.11873 0.33642-0.12863 0.5541-0.34631 0.22757-0.21768 0.33641-0.52441 0.11873-0.30673 0.11873-0.67283 0-0.75198-0.45514-1.18734-0.44526-0.44525-1.34566-0.44525t-1.35554 0.44525q-0.44526 0.43536-0.44526 1.18734 0 0.35621 0.10884 0.66294 0.11874 0.30673 0.33642 0.5343 0.22757 0.21768 0.56398 0.34631 0.34631 0.11873 0.79156 0.11873zm-14.75981 5.32324v-10.15176h1.49407q0.47493 0 0.62335 0.44526l0.16821 0.80145q0.30673-0.31662 0.64314-0.57388 0.34631-0.25726 0.7223-0.44525 0.38588-0.188 0.82124-0.28694 0.43536-0.099 0.94987-0.099 0.83114 0 1.47429 0.28694 0.64314 0.27705 1.0686 0.79156 0.43536 0.50462 0.65304 1.21703 0.22757 0.70251 0.22757 1.55343v6.46111h-2.44394v-6.46111q0-0.93008-0.43536-1.4347-0.42546-0.51451-1.28628-0.51451-0.63325 0-1.18734 0.28694-0.5541 0.28694-1.04882 0.78166v7.34172h-2.44394zm-2.77016-10.15176v10.15176h-2.44394v-10.15176h2.44394zm0.3661-2.95845q0 0.31662-0.12863 0.59367-0.12863 0.27704-0.3463 0.48483-0.20779 0.20778-0.49473 0.33641-0.28694 0.11874-0.61346 0.11874-0.31662 0-0.60356-0.11874-0.27705-0.12863-0.48483-0.33641-0.20779-0.20779-0.33642-0.48483-0.11873-0.27705-0.11873-0.59367 0-0.32652 0.11873-0.61346 0.12863-0.28694 0.33642-0.49473 0.20778-0.20778 0.48483-0.32652 0.28694-0.12862 0.60356-0.12862 0.32652 0 0.61346 0.12862 0.28694 0.11874 0.49473 0.32652 0.21767 0.20779 0.3463 0.49473t0.12863 0.61346zm-19.62668 13.11021v-10.15176h1.49407q0.474936 0 0.623354 0.44526l0.158312 0.75198q0.267151-0.29684 0.554092-0.5442 0.296835-0.24736 0.623354-0.42546 0.336413-0.1781 0.712404-0.27705 0.385886-0.10884 0.841033-0.10884 0.959767 0 1.573226 0.52441 0.623354 0.51451 0.93008 1.37534 0.23747-0.50462 0.59367-0.86083 0.35621-0.36609 0.78167-0.59367 0.42546-0.22757 0.9004-0.33641 0.48483-0.10884 0.96966-0.10884 0.84103 0 1.49407 0.25726t1.09829 0.75198q0.44525 0.49473 0.67283 1.20713 0.23746 0.7124 0.23746 1.63259v6.46111h-2.44394v-6.46111q0-0.96966-0.42546-1.45449-0.42546-0.49472-1.24671-0.49472-0.37599 0-0.70251 0.12862-0.31662 0.12863-0.56399 0.376-0.23746 0.23746-0.37599 0.60356-0.13852 0.3661-0.13852 0.84103v6.46111h-2.453836v-6.46111q0-1.01913-0.415569-1.48417-0.405675-0.46504-1.20713-0.46504-0.524409 0-0.98945 0.26715-0.455147 0.25725-0.850928 0.7124v7.43077h-2.443942zm-6.95202-10.31q1.137868 0 2.058057 0.3661 0.930083 0.36609 1.583121 1.03892 0.653037 0.67283 1.009239 1.64249t0.356202 2.16689q0 1.20713-0.356202 2.1768-0.356202 0.96966-1.009239 1.65238-0.653038 0.68272-1.583121 1.04882-0.920189 0.36609-2.058057 0.36609t-2.067951-0.36609q-0.930083-0.3661-1.593015-1.04882-0.653037-0.68272-1.019134-1.65238-0.356202-0.96967-0.356202-2.1768 0-1.19723 0.356202-2.16689 0.366097-0.96966 1.019134-1.64249 0.662932-0.67283 1.593015-1.03892 0.930083-0.3661 2.067951-0.3661zm0 8.57854q1.266497 0 1.870061-0.85093 0.61346-0.85093 0.61346-2.49342 0-1.64248-0.61346-2.50331-0.603564-0.86082-1.870061-0.86082-1.286285 0-1.899744 0.87072-0.61346 0.86082-0.61346 2.49341 0 1.6326 0.61346 2.49342 0.613459 0.85093 1.899744 0.85093zm-11.28592-8.5785q1.137868 0 2.058057 0.3661 0.930083 0.36609 1.58312 1.03892 0.653038 0.67283 1.00924 1.64249t0.356202 2.16689q0 1.20713-0.356202 2.1768-0.356202 0.96966-1.00924 1.65238-0.653037 0.68272-1.58312 1.04882-0.920189 0.36609-2.058057 0.36609t-2.067951-0.36609q-0.930083-0.3661-1.593015-1.04882-0.653037-0.68272-1.019134-1.65238-0.356202-0.96967-0.356202-2.1768 0-1.19723 0.356202-2.16689 0.366097-0.96966 1.019134-1.64249 0.662932-0.67283 1.593015-1.03892 0.930083-0.3661 2.067951-0.3661zm0 8.57854q1.266497 0 1.870061-0.85093 0.61346-0.85093 0.61346-2.49342 0-1.64248-0.61346-2.50331-0.603564-0.86082-1.870061-0.86082-1.286285 0-1.899745 0.87072-0.613459 0.86082-0.613459 2.49341 0 1.6326 0.613459 2.49342 0.61346 0.85093 1.899745 0.85093zm-7.103944-12.9717v14.70323h-2.443942v-14.70323h2.443942zm-15.33432 14.70323v-14.30745h4.937357q1.40502 0 2.39447 0.26715 0.999345 0.26716 1.632593 0.76188 0.643143 0.49473 0.939978 1.19724t0.296835 1.58312q0 0.50462-0.148417 0.96966-0.148418 0.45514-0.465042 0.86082-0.30673 0.39578-0.79156 0.7223-0.474936 0.32652-1.137868 0.55409 2.948562 0.66293 2.948562 3.18603 0 0.91029-0.346308 1.68207-0.346307 0.77177-1.009239 1.33575-0.662932 0.5541-1.632593 0.87072t-2.216369 0.31662h-5.402399zm2.661622-6.27311v4.19527h2.701199q0.742088 0 1.236813-0.1781 0.50462-0.1781 0.801455-0.47494 0.306729-0.29683 0.435358-0.69261 0.138523-0.39578 0.138523-0.84104 0-0.46504-0.148418-0.83114-0.148417-0.37599-0.465041-0.63324-0.316624-0.26715-0.81135-0.40568-0.494725-0.13852-1.197234-0.13852h-2.691305zm0-1.84038h2.127318q1.355547 0 2.058057-0.49472 0.702509-0.49473 0.702509-1.57323 0-1.11808-0.633248-1.59302-0.633248-0.47493-1.978901-0.47493h-2.275735v4.1359zm-16.21313-4.87182 2.473268-2.47327h-2.760928v-2.76072l-2.473056 2.47328-2.500179-2.50018v7.80872h7.808719l-2.547831-2.54783zm6.452192 7.42828-3.904359 3.90436 3.904359 3.90436h-7.808718l3.904359 3.90436h-7.808719l-3.904359-3.90436 3.904359-3.90436-3.904359-3.90436 3.904359-3.90436h7.808719l-3.904359 3.90436h7.808718zm-3.904359 12.68917h-7.808719v7.80872l2.547831-2.54783 2.473271 2.47327v-2.76093h2.760716l-2.473271-2.47306 2.500178-2.50017zm-12.68917 11.71308-3.90436-3.90436-3.904359 3.90436v-7.80872l-3.90436 3.90436v-7.80872l3.90436-3.90436 3.904359 3.90436 3.90436-3.90436 3.904359 3.90436v7.80872l-3.904359-3.90436v7.80872zm-12.68917-11.71308h-7.808719l2.547831 2.54783-2.473269 2.47327h2.760822v2.76072l2.473269-2.47327s2.500066 2.50017 2.500066 2.50017v-7.80872zm-11.71308-4.88045 3.904359-3.90436-3.904359-3.90436h7.808719l-3.904359-3.90436h7.808719l3.904359 3.90436-3.904359 3.90436 3.904359 3.90436-3.904359 3.90436h-7.808719l3.904359-3.90436h-7.808719zm9.165245-17.95005-2.473164-2.47327v2.76093h-2.760822l2.47327 2.47306-2.500172 2.50017h7.808718v-7.80872l-2.547831 2.54783zm7.428283-6.45219 3.904359 3.90436 3.90436-3.90436v7.80872l3.904359-3.90436v7.80872l-3.904359 3.90435-3.90436-3.90435-3.904359 3.90435-3.90436-3.90435v-7.80872l3.90436 3.90436v-7.80872z"/></g><g fill="#447aa8" transform="translate(-2.752433 -113.4505)"><path fill="#447aa8" d="m153.8636 151.517v-5.97105h0.84386q0.22115 0 0.30845 0.0815t0.11639 0.27934l0.0873 0.72165q0.32008-0.55287 0.75074-0.87296t0.96608-0.32009q0.4423 0 0.73329 0.2037l-0.18624 1.07665q-0.0175 0.10475-0.0756 0.15131-0.0582 0.0407-0.15714 0.0407-0.0873 0-0.2386-0.0407-0.15132-0.0407-0.40157-0.0407-0.44812 0-0.7682 0.25025-0.32009 0.24443-0.54124 0.72165v3.71881h-1.43747zm-4.08909-6.06417q0.66927 0 1.21051 0.21533 0.54705 0.21533 0.93116 0.61108 0.3841 0.39574 0.59361 0.96607 0.20951 0.57034 0.20951 1.27452 0 0.71001-0.20951 1.28035-0.20951 0.57033-0.59361 0.97189-0.38411 0.40156-0.93116 0.61689-0.54124 0.21533-1.21051 0.21533t-1.21632-0.21533q-0.54706-0.21533-0.93698-0.61689-0.3841-0.40156-0.59943-0.97189-0.20951-0.57034-0.20951-1.28035 0-0.70418 0.20951-1.27452 0.21533-0.57033 0.59943-0.96607 0.38992-0.39575 0.93698-0.61108 0.54705-0.21533 1.21632-0.21533zm0 5.04571q0.74493 0 1.09993-0.50049 0.36083-0.5005 0.36083-1.46658 0-0.96607-0.36083-1.47239-0.355-0.50632-1.09993-0.50632-0.75656 0-1.11739 0.51214-0.36082 0.50632-0.36082 1.46657 0 0.96026 0.36082 1.46658 0.36083 0.50049 1.11739 0.50049zm-6.455 2.65962q-0.064 0.15132-0.16877 0.22697-0.0989 0.0815-0.30844 0.0815h-1.07084l1.11739-2.39191-2.41519-5.52875h1.25707q0.17459 0 0.2677 0.0815 0.0931 0.0815 0.13968 0.18623l1.27452 3.0961q0.064 0.15131 0.11058 0.31426 0.0465 0.16295 0.0815 0.32591 0.0466-0.16877 0.0989-0.32591 0.0582-0.15713 0.12221-0.32008l1.19887-3.09028q0.0465-0.1164 0.15131-0.19205 0.11057-0.0757 0.24443-0.0757h1.15231l-3.25324 7.61221zm-3.32724-1.64116h-0.64599q-0.2037 0-0.32009-0.0582-0.11639-0.064-0.17459-0.25025l-0.12804-0.42484q-0.22697 0.20369-0.44812 0.36082-0.21533 0.15132-0.44812 0.25607-0.23278 0.10476-0.49467 0.15714-0.26189 0.0524-0.58198 0.0524-0.37828 0-0.69836-0.0989-0.32009-0.10476-0.55288-0.30845-0.22697-0.20369-0.355-0.50631-0.12804-0.30263-0.12804-0.70419 0-0.33755 0.17459-0.66345 0.18042-0.33173 0.59362-0.59362 0.4132-0.2677 1.09993-0.4423 0.68673-0.17459 1.70518-0.19787v-0.34918q0-0.59943-0.25607-0.8846-0.25025-0.29099-0.73329-0.29099-0.34918 0-0.58197 0.0815t-0.40738 0.18623q-0.16877 0.0989-0.31427 0.18041-0.14549 0.0815-0.32008 0.0815-0.14549 0-0.25025-0.0757t-0.16877-0.18623l-0.26189-0.45976q1.03009-0.9428 2.48503-0.9428 0.52377 0 0.93115 0.1746 0.41321 0.16877 0.69837 0.47721 0.28517 0.30263 0.43066 0.72747 0.15132 0.42484 0.15132 0.93116v3.77119zm-2.79348-0.89624q0.22115 0 0.40738-0.0407 0.18624-0.0407 0.34919-0.12221 0.16877-0.0815 0.32008-0.19787 0.15714-0.12222 0.31427-0.28517v-1.00682q-0.62853 0.0291-1.05337 0.11058-0.41902 0.0757-0.67509 0.19787-0.25607 0.12221-0.36664 0.28517-0.10476 0.16295-0.10476 0.355 0 0.37828 0.22115 0.54124 0.22697 0.16295 0.58779 0.16295zm-8.37733-2.5956q0.0989 0.18623 0.18041 0.38992 0.0873 0.19787 0.16878 0.40156 0.0815-0.20951 0.16877-0.4132 0.0873-0.20369 0.18623-0.38992l2.49085-4.66161q0.0466-0.0873 0.0931-0.13967 0.0524-0.0524 0.11058-0.0757 0.064-0.0233 0.13967-0.0291 0.0757-0.006 0.18041-0.006h1.18141v8.41534h-1.37928v-5.43563q0-0.15132 0.006-0.33173 0.0116-0.18041 0.0291-0.36664l-2.54322 4.77218q-0.0873 0.16295-0.22697 0.25607-0.13968 0.0873-0.32591 0.0873h-0.21533q-0.18623 0-0.3259-0.0873-0.13968-0.0931-0.22697-0.25607l-2.57815-4.78964q0.0233 0.19205 0.0291 0.37828 0.0116 0.18041 0.0116 0.33755v5.43563h-1.37927v-8.41534h1.1814q0.10476 0 0.18041 0.006 0.0757 0.006 0.13386 0.0291 0.064 0.0233 0.11639 0.0757 0.0524 0.0524 0.0989 0.13967l2.51412 4.67325zm-9.47416 2.60724q0-0.16295 0.0582-0.30263 0.064-0.14549 0.1746-0.25025 0.11057-0.11057 0.2677-0.16877 0.15714-0.064 0.34337-0.064 0.22115 0 0.3841 0.0815 0.16295 0.0757 0.27353 0.21533 0.11057 0.13385 0.16295 0.31427 0.0524 0.17459 0.0524 0.37246 0 0.27935-0.0873 0.58779-0.0815 0.30845-0.24443 0.61689-0.16295 0.30845-0.40156 0.59944-0.23861 0.29098-0.54705 0.53541l-0.25025-0.22697q-0.10476-0.0873-0.10476-0.21533 0-0.0466 0.0291-0.10475 0.0349-0.0582 0.0815-0.10476 0.064-0.0698 0.15713-0.17459 0.0931-0.0989 0.18623-0.23279 0.0931-0.12803 0.16877-0.28517 0.0815-0.15131 0.1164-0.3259-0.18041 0-0.33173-0.064-0.15131-0.0698-0.26188-0.18623-0.10476-0.11639-0.16878-0.27353-0.0582-0.15713-0.0582-0.34336zm-6.31278 0.8846v-5.97105h0.87878q0.27935 0 0.36665 0.26189l0.0989 0.4714q0.18041-0.18624 0.37829-0.33755 0.20369-0.15131 0.42484-0.26189 0.22697-0.11057 0.48303-0.16877 0.25607-0.0582 0.5587-0.0582 0.48886 0 0.86714 0.16878 0.37828 0.16295 0.62853 0.46557 0.25607 0.29681 0.3841 0.71583 0.13386 0.4132 0.13386 0.9137v3.80029h-1.43748v-3.80029q0-0.54705-0.25607-0.84386-0.25024-0.30263-0.75656-0.30263-0.37246 0-0.69837 0.16878-0.3259 0.16877-0.61689 0.45975v4.31825h-1.43748zm-1.41347 0h-0.64599q-0.20369 0-0.32008-0.0582-0.1164-0.064-0.17459-0.25025l-0.12804-0.42484q-0.22697 0.20369-0.44812 0.36082-0.21533 0.15132-0.44812 0.25607-0.23279 0.10476-0.49467 0.15714-0.26189 0.0524-0.58198 0.0524-0.37828 0-0.69837-0.0989-0.32008-0.10476-0.55287-0.30845-0.22697-0.20369-0.35501-0.50631-0.12803-0.30263-0.12803-0.70419 0-0.33755 0.17459-0.66345 0.18041-0.33173 0.59362-0.59362 0.4132-0.2677 1.09993-0.4423 0.68672-0.17459 1.70518-0.19787v-0.34918q0-0.59943-0.25607-0.8846-0.25025-0.29099-0.73329-0.29099-0.34918 0-0.58197 0.0815t-0.40738 0.18623q-0.16877 0.0989-0.31427 0.18041-0.14549 0.0815-0.32008 0.0815-0.1455 0-0.25025-0.0757-0.10476-0.0757-0.16877-0.18623l-0.26189-0.45976q1.03009-0.9428 2.48502-0.9428 0.52378 0 0.93116 0.1746 0.4132 0.16877 0.69837 0.47721 0.28517 0.30263 0.43066 0.72747 0.15131 0.42484 0.15131 0.93116v3.77119zm-2.79347-0.89624q0.22115 0 0.40738-0.0407t0.34919-0.12221q0.16877-0.0815 0.32008-0.19787 0.15713-0.12222 0.31427-0.28517v-1.00682q-0.62853 0.0291-1.05337 0.11058-0.41903 0.0757-0.67509 0.19787-0.25607 0.12221-0.36665 0.28517-0.10475 0.16295-0.10475 0.355 0 0.37828 0.22115 0.54124 0.22697 0.16295 0.58779 0.16295zm-3.04608-4.4812q0 0.15132-0.0582 0.29681-0.0524 0.13967-0.12803 0.23861l-2.84003 3.73627h2.94478v1.10575h-4.61505v-0.59943q0-0.0989 0.0466-0.23279 0.0466-0.13968 0.14549-0.26189l2.86331-3.77701h-2.88659v-1.09993h4.52776v0.59361zm-9.618388-0.59361v3.79447q0 0.54705 0.250248 0.84968 0.256069 0.2968 0.762386 0.2968 0.372463 0 0.698368-0.16295 0.325905-0.16877 0.616892-0.45976v-4.31824h1.437474v5.97105h-0.87878q-0.279347 0-0.366643-0.26189l-0.09894-0.47722q-0.186232 0.18623-0.384103 0.34337-0.197871 0.15131-0.424841 0.26188-0.22115 0.10476-0.483038 0.16296-0.256068 0.064-0.552874 0.064-0.488858 0-0.867141-0.16295-0.372463-0.16877-0.628531-0.4714-0.256069-0.30262-0.389923-0.71582-0.128034-0.41903-0.128034-0.91952v-3.79447h1.437475zm-6.066531 5.97105v-5.97105h0.843862q0.22115 0 0.308446 0.0815 0.0873 0.0815 0.116395 0.27934l0.0873 0.72165q0.320085-0.55287 0.750745-0.87296 0.430661-0.32009 0.966076-0.32009 0.4423 0 0.733287 0.2037l-0.186231 1.07665q-0.01746 0.10475-0.07566 0.15131-0.0582 0.0407-0.157133 0.0407-0.0873 0-0.238609-0.0407-0.151313-0.0407-0.401562-0.0407-0.448119 0-0.768205 0.25025-0.320085 0.24443-0.541235 0.72165v3.71881h-1.437475zm-6.439172-4.88858h0.366644q0.22115 0 0.366643-0.0582 0.145493-0.064 0.250249-0.19787l2.322074-2.93896q0.145493-0.18624 0.302626-0.25607 0.162953-0.0757 0.407382-0.0757h1.350178l-2.834211 3.49766q-0.133854 0.16295-0.256068 0.27353-0.122215 0.11057-0.261888 0.18041 0.192051 0.0698 0.343364 0.19787 0.157133 0.12804 0.302626 0.32591l2.921507 3.93996h-1.385097q-0.279347 0-0.41902-0.0757-0.133854-0.0815-0.22697-0.23279l-2.380272-3.10774q-0.116394-0.15131-0.261888-0.21533-0.145493-0.0698-0.413201-0.0698h-0.494678v3.70135h-1.565508v-8.42116h1.565508v3.53258zm-8.928564-3.75955v4.9526h0.267708q0.145493 0 0.22697-0.0407 0.08148-0.0407 0.174592-0.15132l1.484032-1.83321q0.09894-0.1164 0.209511-0.18041 0.110575-0.0698 0.290986-0.0698h1.31526l-1.856495 2.21732q-0.09894 0.12221-0.203691 0.22697-0.104755 0.0989-0.226969 0.17459 0.122214 0.0873 0.21533 0.20369 0.09312 0.1164 0.186231 0.25025l1.99035 2.89823h-1.297801q-0.168773 0-0.285167-0.0582-0.116395-0.0582-0.209511-0.19787l-1.51881-2.2638q-0.0873-0.13385-0.174592-0.17459-0.0873-0.0407-0.261888-0.0407h-0.325905v2.73528h-1.437474v-8.64813h1.437474zm-6.2062 8.64813v-5.97105h0.843862q0.221149 0 0.308445 0.0815 0.0873 0.0815 0.116395 0.27934l0.0873 0.72165q0.320086-0.55287 0.750746-0.87296t0.966076-0.32009q0.4423 0 0.733287 0.2037l-0.186232 1.07665q-0.01746 0.10475-0.07566 0.15131-0.0582 0.0407-0.157133 0.0407-0.0873 0-0.238609-0.0407-0.151314-0.0407-0.401562-0.0407-0.44812 0-0.768205 0.25025-0.320086 0.24443-0.541236 0.72165v3.71881h-1.437474zm-1.413469 0h-0.645991q-0.20369 0-0.320085-0.0582-0.116395-0.064-0.174592-0.25025l-0.128034-0.42484q-0.22697 0.20369-0.44812 0.36082-0.21533 0.15132-0.44812 0.25607-0.232789 0.10476-0.494677 0.15714-0.261888 0.0524-0.581973 0.0524-0.378283 0-0.698369-0.0989-0.320085-0.10476-0.552875-0.30845-0.226969-0.20369-0.355003-0.50631-0.128035-0.30263-0.128035-0.70419 0-0.33755 0.174593-0.66345 0.180411-0.33173 0.593612-0.59362 0.413202-0.2677 1.09993-0.4423 0.686729-0.17459 1.705183-0.19787v-0.34918q0-0.59943-0.256069-0.8846-0.250248-0.29099-0.733286-0.29099-0.349184 0-0.581974 0.0815-0.232789 0.0815-0.407381 0.18623-0.168772 0.0989-0.314266 0.18041-0.145493 0.0815-0.320085 0.0815-0.145494 0-0.250249-0.0757t-0.168772-0.18623l-0.26175-0.4597q1.030093-0.9428 2.485027-0.9428 0.523776 0 0.931157 0.1746 0.413201 0.16877 0.698368 0.47721 0.285167 0.30263 0.430661 0.72747 0.151313 0.42484 0.151313 0.93116v3.77119zm-2.793473-0.89624q0.22115 0 0.407382-0.0407 0.186231-0.0407 0.349184-0.12221 0.168772-0.0815 0.320085-0.19787 0.157133-0.12222 0.314266-0.28517v-1.00682q-0.628532 0.0291-1.053372 0.11058-0.419021 0.0757-0.67509 0.19787-0.256068 0.12221-0.366643 0.28517-0.104755 0.16295-0.104755 0.355 0 0.37828 0.22115 0.54124 0.22697 0.16295 0.587793 0.16295zm-8.377327-2.5956q0.09893 0.18623 0.180412 0.38992 0.0873 0.19787 0.168772 0.40156 0.08148-0.20951 0.168772-0.4132 0.0873-0.20369 0.186232-0.38992l2.490846-4.66161q0.04656-0.0873 0.09312-0.13967 0.05238-0.0524 0.110575-0.0757 0.06402-0.0233 0.139674-0.0291 0.07566-0.006 0.180412-0.006h1.181406v8.41534h-1.379277v-5.43563q0-0.15132 0.0058-0.33173 0.01164-0.18041 0.0291-0.36664l-2.543224 4.77218q-0.0873 0.16295-0.22697 0.25607-0.139674 0.0873-0.325905 0.0873h-0.21533q-0.186232 0-0.325905-0.0873-0.139674-0.0931-0.22697-0.25607l-2.578143-4.78964q0.02328 0.19205 0.0291 0.37828 0.01164 0.18041 0.01164 0.33755v5.43563h-1.379277v-8.41534h1.181406q0.104756 0 0.180412 0.006 0.07566 0.006 0.133854 0.0291 0.06402 0.0233 0.116395 0.0757 0.05238 0.0524 0.09894 0.13967l2.514126 4.67325zm148.6276-11.43843h-1.65922l-3.02216-7.59984h1.51848q0.2 0 0.33333 0.0963 0.14074 0.0963 0.19259 0.24444l1.46664 4.05918q0.12592 0.35555 0.2074 0.69628 0.0889 0.34073 0.15555 0.68147 0.0667-0.34074 0.14815-0.68147 0.0889-0.34073 0.22221-0.69628l1.50368-4.05918q0.0519-0.14814 0.18518-0.24444 0.13333-0.0963 0.31851-0.0963h1.44441l-3.01475 7.59984zm-8.78037-7.71836q0.85183 0 1.54071 0.27407 0.69628 0.27407 1.18516 0.77776 0.48888 0.5037 0.75554 1.22961t0.26666 1.62219q0 0.90368-0.26666 1.62959t-0.75554 1.23701-1.18516 0.78517q-0.68888 0.27407-1.54071 0.27407t-1.54812-0.27407q-0.69628-0.27407-1.19256-0.78517-0.48888-0.5111-0.76295-1.23701-0.26666-0.72591-0.26666-1.62959 0-0.89628 0.26666-1.62219 0.27407-0.72591 0.76295-1.22961 0.49628-0.50369 1.19256-0.77776 0.69629-0.27407 1.54812-0.27407zm0 6.42209q0.94813 0 1.39997-0.63702 0.45925-0.63703 0.45925-1.86663t-0.45925-1.87403q-0.45184-0.64444-1.39997-0.64444-0.96294 0-1.42219 0.65184-0.45925 0.64443-0.45925 1.86663t0.45925 1.86663q0.45925 0.63702 1.42219 0.63702zm-8.28247-6.4369q0.48888 0 0.9185 0.1037 0.42962 0.0963 0.78517 0.28888h2.18514v0.68147q0 0.17037-0.0889 0.26666-0.0889 0.0963-0.30369 0.13333l-0.68147 0.12593q0.0741 0.19258 0.11111 0.40739 0.0444 0.21481 0.0444 0.45185 0 0.56295-0.22962 1.0222-0.22222 0.45184-0.62221 0.77035-0.39259 0.31851-0.94072 0.49629-0.54073 0.17036-1.17776 0.17036-0.42962 0-0.83702-0.0815-0.35554 0.21482-0.35554 0.48148 0 0.22962 0.2074 0.34073 0.21481 0.1037 0.55554 0.14814 0.34814 0.0445 0.78517 0.0593 0.43703 0.007 0.89628 0.0445 0.45925 0.037 0.89628 0.13333 0.43703 0.0889 0.77776 0.28888 0.34814 0.2 0.55554 0.54814 0.21481 0.34073 0.21481 0.88146 0 0.50369-0.25184 0.97776-0.24444 0.47406-0.71851 0.84442-0.46665 0.37037-1.14812 0.59258-0.68147 0.22963-1.55552 0.22963-0.86665 0-1.50368-0.17037-0.63702-0.16296-1.05923-0.44443-0.41481-0.27407-0.62221-0.63703-0.20741-0.36295-0.20741-0.75554 0-0.53332 0.32592-0.89627 0.32592-0.36296 0.90369-0.57777-0.28148-0.15555-0.45184-0.41481-0.17037-0.25925-0.17037-0.67406 0-0.17036 0.0593-0.34814 0.0592-0.18518 0.17777-0.36295 0.12592-0.17778 0.31111-0.33333 0.18518-0.16296 0.43702-0.28888-0.57776-0.31111-0.91109-0.82961-0.32592-0.51851-0.32592-1.21479 0-0.56295 0.22222-1.0148 0.22962-0.45925 0.62962-0.77776 0.4074-0.32592 0.95553-0.49628 0.55555-0.17037 1.20738-0.17037zm2.00737 8.0739q0-0.22221-0.13333-0.36295t-0.36296-0.21481q-0.22962-0.0815-0.54073-0.11852-0.30369-0.037-0.65183-0.0519-0.34074-0.0222-0.7111-0.037-0.36296-0.0222-0.70369-0.0667-0.3111 0.17037-0.50369 0.4074-0.18518 0.22962-0.18518 0.53332 0 0.2 0.0963 0.37036 0.1037 0.17778 0.31851 0.3037 0.22222 0.12592 0.57036 0.19259 0.34814 0.0741 0.85183 0.0741 0.51111 0 0.88147-0.0815 0.37036-0.0741 0.60739-0.21481 0.24444-0.13333 0.35555-0.32592 0.11111-0.18518 0.11111-0.4074zm-2.00737-4.32583q0.34074 0 0.59258-0.0889 0.25185-0.0963 0.41481-0.25925 0.17037-0.16296 0.25185-0.39259 0.0889-0.22962 0.0889-0.50369 0-0.56295-0.34073-0.88887-0.33333-0.33333-1.00739-0.33333t-1.01479 0.33333q-0.33333 0.32592-0.33333 0.88887 0 0.26666 0.0815 0.49629 0.0889 0.22962 0.25185 0.39999 0.17037 0.16296 0.42221 0.25925 0.25926 0.0889 0.59258 0.0889zm-6.42301 2.97771q0-0.22962 0.0815-0.43702 0.0889-0.20741 0.23703-0.35555 0.15555-0.14815 0.36296-0.23703 0.2074-0.0889 0.44443-0.0889 0.22963 0 0.43703 0.0889t0.35555 0.23703q0.14814 0.14814 0.23703 0.35555 0.0889 0.2074 0.0889 0.43702 0 0.23704-0.0889 0.44444-0.0889 0.2-0.23703 0.34814-0.14815 0.14815-0.35555 0.22962-0.2074 0.0889-0.43703 0.0889-0.23703 0-0.44443-0.0889-0.20741-0.0815-0.36296-0.22962-0.14814-0.14814-0.23703-0.34814-0.0815-0.2074-0.0815-0.44444zm-7.98293 1.00739v-7.59984h1.11849q0.35555 0 0.46666 0.33333l0.12592 0.59998q0.22963-0.23703 0.48147-0.42962 0.25926-0.19259 0.54073-0.33332 0.28888-0.14074 0.6148-0.21481 0.32592-0.0741 0.7111-0.0741 0.62221 0 1.10368 0.21481 0.48147 0.20741 0.79998 0.59258 0.32592 0.37777 0.48888 0.9111 0.17037 0.52591 0.17037 1.16293v4.83694h-1.82959v-4.83694q0-0.69628-0.32592-1.07405-0.31851-0.38517-0.96294-0.38517-0.47407 0-0.88887 0.21481-0.41481 0.21481-0.78517 0.58517v5.49618h-1.82959zm-2.0738-7.59984v7.59984h-1.8296v-7.59984h1.8296zm0.27406-2.21477q0 0.23703-0.0963 0.44444-0.0963 0.2074-0.25925 0.36295-0.15556 0.15555-0.37037 0.25185-0.21481 0.0889-0.45925 0.0889-0.23703 0-0.45184-0.0889-0.2074-0.0963-0.36295-0.25185-0.15556-0.15555-0.25185-0.36295-0.0889-0.20741-0.0889-0.44444 0-0.24444 0.0889-0.45925 0.0963-0.21481 0.25185-0.37036t0.36295-0.24444q0.21481-0.0963 0.45184-0.0963 0.24444 0 0.45925 0.0963 0.21481 0.0889 0.37037 0.24444 0.16296 0.15555 0.25925 0.37036 0.0963 0.21481 0.0963 0.45925zm-6.01561 8.80722q0-0.22962 0.0815-0.43702 0.0889-0.20741 0.23703-0.35555 0.15555-0.14815 0.36296-0.23703 0.2074-0.0889 0.44443-0.0889 0.22963 0 0.43703 0.0889t0.35555 0.23703q0.14814 0.14814 0.23703 0.35555 0.0889 0.2074 0.0889 0.43702 0 0.23704-0.0889 0.44444-0.0889 0.2-0.23703 0.34814-0.14815 0.14815-0.35555 0.22962-0.2074 0.0889-0.43703 0.0889-0.23703 0-0.44443-0.0889-0.20741-0.0815-0.36296-0.22962-0.14814-0.14814-0.23703-0.34814-0.0815-0.2074-0.0815-0.44444z"/></g></svg>
