<?xml version="1.0" encoding="UTF-8" standalone="no"?>
<svg
   viewBox="0 0 205.82835 42.99577"
   height="42.99577"
   width="205.8284"
   version="1.1"
   id="svg5"
   sodipodi:docname="bloomington-logo.svg"
   inkscape:version="1.1.2 (0a00cf5339, 2022-02-04)"
   xmlns:inkscape="http://www.inkscape.org/namespaces/inkscape"
   xmlns:sodipodi="http://sodipodi.sourceforge.net/DTD/sodipodi-0.dtd"
   xmlns="http://www.w3.org/2000/svg"
   xmlns:svg="http://www.w3.org/2000/svg">
  <defs
     id="defs9" />
  <sodipodi:namedview
     id="namedview7"
     pagecolor="#ffffff"
     bordercolor="#666666"
     borderopacity="1.0"
     inkscape:pageshadow="2"
     inkscape:pageopacity="0.0"
     inkscape:pagecheckerboard="0"
     showgrid="false"
     inkscape:zoom="8.2106512"
     inkscape:cx="138.29597"
     inkscape:cy="21.557364"
     inkscape:window-width="1920"
     inkscape:window-height="1011"
     inkscape:window-x="0"
     inkscape:window-y="0"
     inkscape:window-maximized="1"
     inkscape:current-layer="svg5" />
  <path
     id="path4495"
     style="fill:#447aa8;"
     d="M 167.38086 12.171875 C 167.22294 12.171875 167.07281 12.203418 166.92969 12.267578 C 166.7915 12.326799 166.67004 12.408081 166.56641 12.511719 C 166.46274 12.615357 166.37859 12.739694 166.31445 12.882812 C 166.25525 13.025931 166.22656 13.178938 166.22656 13.341797 C 166.22656 13.499721 166.25525 13.646972 166.31445 13.785156 C 166.37861 13.92334 166.46277 14.044799 166.56641 14.148438 C 166.67004 14.252072 166.7915 14.336231 166.92969 14.400391 C 167.07281 14.459611 167.22294 14.488281 167.38086 14.488281 C 167.54372 14.488281 167.69672 14.459611 167.83984 14.400391 C 167.98296 14.336234 168.1073 14.252076 168.21094 14.148438 C 168.31954 14.044799 168.40462 13.92334 168.46875 13.785156 C 168.53288 13.646972 168.56641 13.499721 168.56641 13.341797 C 168.56641 13.178938 168.53288 13.025931 168.46875 12.882812 C 168.40459 12.739694 168.31951 12.615357 168.21094 12.511719 C 168.1073 12.408079 167.98296 12.326798 167.83984 12.267578 C 167.69672 12.203418 167.54372 12.171875 167.38086 12.171875 z M 184.76172 15.421875 C 184.32743 15.421875 183.92482 15.478289 183.55469 15.591797 C 183.18949 15.705305 182.87104 15.870745 182.59961 16.087891 C 182.33311 16.300101 182.12369 16.559256 181.9707 16.865234 C 181.82265 17.166277 181.74805 17.503836 181.74805 17.878906 C 181.74805 18.342809 181.85707 18.748291 182.07422 19.09375 C 182.2963 19.439209 182.59943 19.714599 182.98438 19.921875 C 182.81658 20.005772 182.67221 20.102364 182.54883 20.210938 C 182.42545 20.314575 182.32022 20.424525 182.23633 20.542969 C 182.15735 20.661412 182.09806 20.782872 182.05859 20.90625 C 182.01913 21.024693 182 21.140398 182 21.253906 C 182 21.530274 182.05642 21.755004 182.16992 21.927734 C 182.28343 22.100464 182.43355 22.238159 182.62109 22.341797 C 182.23615 22.484916 181.9359 22.678101 181.71875 22.919922 C 181.5016 23.161743 181.39258 23.461077 181.39258 23.816406 C 181.39258 24.077968 181.46143 24.328491 181.59961 24.570312 C 181.7378 24.812134 181.94629 25.024432 182.22266 25.207031 C 182.50396 25.394567 182.85682 25.543771 183.28125 25.652344 C 183.70567 25.765852 184.2058 25.822266 184.7832 25.822266 C 185.36555 25.822266 185.88386 25.744786 186.33789 25.591797 C 186.79192 25.443743 187.17541 25.246757 187.48633 25 C 187.80217 24.753243 188.04026 24.472099 188.20312 24.15625 C 188.37092 23.840402 188.45508 23.515277 188.45508 23.179688 C 188.45508 22.819423 188.38335 22.525844 188.24023 22.298828 C 188.10205 22.066877 187.9175 21.883249 187.68555 21.75 C 187.45853 21.61675 187.19938 21.520157 186.9082 21.460938 C 186.61703 21.396778 186.3177 21.352798 186.01172 21.328125 C 185.70574 21.303445 185.40835 21.288136 185.11719 21.283203 C 184.82601 21.273336 184.56398 21.254223 184.33203 21.224609 C 184.10502 21.194999 183.92046 21.145264 183.77734 21.076172 C 183.63916 21.002145 183.57031 20.889317 183.57031 20.736328 C 183.57031 20.558663 183.68889 20.398978 183.92578 20.255859 C 184.19721 20.310146 184.47548 20.335938 184.76172 20.335938 C 185.18614 20.335937 185.57723 20.279524 185.9375 20.166016 C 186.30269 20.047572 186.61734 19.882133 186.87891 19.669922 C 187.1454 19.457711 187.35195 19.201434 187.5 18.900391 C 187.65299 18.594413 187.73047 18.253976 187.73047 17.878906 C 187.73047 17.720982 187.71515 17.570853 187.68555 17.427734 C 187.66085 17.284616 187.62355 17.147845 187.57422 17.019531 L 188.25586 16.894531 C 188.399 16.869859 188.49939 16.825879 188.55859 16.761719 C 188.61779 16.697562 188.64844 16.607649 188.64844 16.494141 L 188.64844 15.8125 L 186.46484 15.8125 C 186.22796 15.68419 185.96593 15.589551 185.67969 15.525391 C 185.39345 15.456299 185.08743 15.421875 184.76172 15.421875 z M 174.42188 15.435547 C 174.16524 15.435547 173.92808 15.460412 173.71094 15.509766 C 173.49379 15.559117 173.28818 15.630842 173.0957 15.724609 C 172.90817 15.818377 172.72741 15.93028 172.55469 16.058594 C 172.38689 16.186907 172.22721 16.328404 172.07422 16.486328 L 171.94922 15.886719 C 171.87519 15.664637 171.71931 15.554688 171.48242 15.554688 L 170.36523 15.554688 L 170.36523 23.150391 L 172.19336 23.150391 L 172.19336 17.65625 C 172.44012 17.409493 172.7002 17.215384 172.97656 17.072266 C 173.25293 16.929147 173.54939 16.857422 173.86523 16.857422 C 174.29459 16.857422 174.61592 16.985561 174.82812 17.242188 C 175.04527 17.493879 175.1543 17.852504 175.1543 18.316406 L 175.1543 23.150391 L 176.98242 23.150391 L 176.98242 18.316406 C 176.98242 17.891985 176.92601 17.504691 176.8125 17.154297 C 176.70393 16.798968 176.54137 16.49388 176.32422 16.242188 C 176.11201 15.985561 175.84422 15.788575 175.52344 15.650391 C 175.20265 15.507272 174.83642 15.435547 174.42188 15.435547 z M 193.03906 15.435547 C 192.47152 15.435547 191.95609 15.526384 191.49219 15.708984 C 191.02828 15.891584 190.62948 16.150739 190.29883 16.486328 C 189.97311 16.821917 189.71971 17.233154 189.53711 17.716797 C 189.35945 18.20044 189.27148 18.740739 189.27148 19.337891 C 189.27148 19.939977 189.35945 20.481201 189.53711 20.964844 C 189.71971 21.448486 189.97311 21.860648 190.29883 22.201172 C 190.62948 22.541696 191.02828 22.803728 191.49219 22.986328 C 191.95609 23.168928 192.47152 23.259766 193.03906 23.259766 C 193.6066 23.259766 194.11916 23.168928 194.57812 22.986328 C 195.04202 22.803728 195.43795 22.541696 195.76367 22.201172 C 196.08939 21.860648 196.33991 21.448486 196.51758 20.964844 C 196.69524 20.481201 196.78516 19.939977 196.78516 19.337891 C 196.78516 18.740739 196.69524 18.20044 196.51758 17.716797 C 196.33991 17.233154 196.08939 16.821917 195.76367 16.486328 C 195.43795 16.150739 195.04203 15.891584 194.57812 15.708984 C 194.11916 15.526384 193.6066 15.435547 193.03906 15.435547 z M 166.46289 15.554688 L 166.46289 23.150391 L 168.29102 23.150391 L 168.29102 15.554688 L 166.46289 15.554688 z M 197.13477 15.554688 L 200.15625 23.150391 L 201.81445 23.150391 L 204.82617 15.554688 L 203.38281 15.554688 C 203.25943 15.554688 203.15328 15.586231 203.06445 15.650391 C 202.97561 15.714547 202.91344 15.795829 202.87891 15.894531 L 201.37695 19.951172 C 201.2881 20.188059 201.2135 20.419468 201.1543 20.646484 C 201.1 20.8735 201.05026 21.101109 201.00586 21.328125 C 200.96142 21.101109 200.91076 20.8735 200.85156 20.646484 C 200.79728 20.419468 200.72843 20.188059 200.64453 19.951172 L 199.17773 15.894531 C 199.14319 15.795832 199.08009 15.714551 198.98633 15.650391 C 198.89749 15.586231 198.78559 15.554688 198.65234 15.554688 L 197.13477 15.554688 z M 184.76172 16.701172 C 185.21081 16.701172 185.5455 16.813075 185.76758 17.035156 C 185.9946 17.252302 186.10937 17.548758 186.10938 17.923828 C 186.10937 18.106428 186.07873 18.272792 186.01953 18.425781 C 185.96525 18.57877 185.88109 18.709786 185.76758 18.818359 C 185.659 18.926929 185.52131 19.013965 185.35352 19.078125 C 185.18572 19.137345 184.98873 19.166016 184.76172 19.166016 C 184.53963 19.166016 184.34265 19.137345 184.16992 19.078125 C 184.00213 19.013968 183.86155 18.926932 183.74805 18.818359 C 183.63945 18.704851 183.55529 18.572911 183.49609 18.419922 C 183.44183 18.266933 183.41406 18.101493 183.41406 17.923828 C 183.41406 17.548758 183.52597 17.252302 183.74805 17.035156 C 183.97506 16.813075 184.31262 16.701172 184.76172 16.701172 z M 193.03906 16.835938 C 193.67076 16.835937 194.13645 17.049159 194.4375 17.478516 C 194.74348 17.907872 194.89648 18.532331 194.89648 19.351562 C 194.89648 20.170795 194.74348 20.792376 194.4375 21.216797 C 194.13645 21.641218 193.67076 21.853516 193.03906 21.853516 C 192.3975 21.853516 191.92317 21.641218 191.61719 21.216797 C 191.31121 20.78744 191.1582 20.165859 191.1582 19.351562 C 191.1582 18.537266 191.31121 17.915685 191.61719 17.486328 C 191.92317 17.052037 192.3975 16.835938 193.03906 16.835938 z M 163.67969 21.025391 C 163.52176 21.025391 163.37256 21.054061 163.23438 21.113281 C 163.09619 21.172503 162.97473 21.25286 162.87109 21.351562 C 162.77237 21.450265 162.69397 21.566894 162.63477 21.705078 C 162.5805 21.843261 162.55469 21.989589 162.55469 22.142578 C 162.55469 22.300502 162.5805 22.449707 162.63477 22.587891 C 162.69399 22.721139 162.77239 22.836844 162.87109 22.935547 C 162.97473 23.03425 163.09619 23.109776 163.23438 23.164062 C 163.37256 23.223282 163.52176 23.253906 163.67969 23.253906 C 163.83267 23.253906 163.97705 23.223282 164.11523 23.164062 C 164.25341 23.109776 164.372 23.03425 164.4707 22.935547 C 164.56942 22.836844 164.64783 22.721139 164.70703 22.587891 C 164.76623 22.449707 164.79688 22.300502 164.79688 22.142578 C 164.79688 21.989589 164.76623 21.843261 164.70703 21.705078 C 164.64781 21.566894 164.5694 21.450265 164.4707 21.351562 C 164.372 21.252859 164.25341 21.172501 164.11523 21.113281 C 163.97705 21.054061 163.83267 21.025391 163.67969 21.025391 z M 179.4668 21.025391 C 179.30888 21.025391 179.16162 21.054061 179.02344 21.113281 C 178.88526 21.172503 178.7638 21.25286 178.66016 21.351562 C 178.56143 21.450265 178.48303 21.566894 178.42383 21.705078 C 178.36956 21.843261 178.3418 21.989589 178.3418 22.142578 C 178.3418 22.300502 178.36956 22.449707 178.42383 22.587891 C 178.48305 22.721139 178.56145 22.836844 178.66016 22.935547 C 178.7638 23.03425 178.88526 23.109776 179.02344 23.164062 C 179.16162 23.223282 179.30888 23.253906 179.4668 23.253906 C 179.61979 23.253906 179.76612 23.223282 179.9043 23.164062 C 180.04248 23.109776 180.16107 23.03425 180.25977 22.935547 C 180.35849 22.836844 180.43689 22.721139 180.49609 22.587891 C 180.55529 22.449707 180.58594 22.300502 180.58594 22.142578 C 180.58594 21.989589 180.55529 21.843261 180.49609 21.705078 C 180.43687 21.566894 180.35847 21.450265 180.25977 21.351562 C 180.16107 21.252859 180.04248 21.172501 179.9043 21.113281 C 179.76612 21.054061 179.61979 21.025391 179.4668 21.025391 z M 183.66602 22.638672 C 183.89303 22.668285 184.12732 22.690271 184.36914 22.705078 C 184.6159 22.714945 184.85306 22.727381 185.08008 22.742188 C 185.31203 22.752061 185.52813 22.770249 185.73047 22.794922 C 185.93774 22.819597 186.11849 22.857823 186.27148 22.912109 C 186.42447 22.961461 186.54593 23.033186 186.63477 23.126953 C 186.7236 23.220721 186.76758 23.34218 186.76758 23.490234 C 186.76758 23.638288 186.73028 23.773106 186.65625 23.896484 C 186.58222 24.024798 186.46364 24.133824 186.30078 24.222656 C 186.14285 24.316422 185.94011 24.388147 185.69336 24.4375 C 185.4466 24.491787 185.15302 24.519531 184.8125 24.519531 C 184.47691 24.519531 184.19288 24.494666 183.96094 24.445312 C 183.72898 24.400896 183.54063 24.33585 183.39258 24.251953 C 183.24946 24.168056 183.14331 24.067662 183.07422 23.949219 C 183.01009 23.835711 182.97656 23.711374 182.97656 23.578125 C 182.97656 23.375784 183.03874 23.199864 183.16211 23.046875 C 183.29042 22.888951 183.45874 22.752181 183.66602 22.638672 z " />
  <path
     style="fill:#315da6"
     d="m 152.26907,23.1506 0,-10.15176 1.49407,0 q 0.47493,0 0.62335,0.44526 l 0.16821,0.80145 q 0.30673,-0.31662 0.64314,-0.57388 0.34631,-0.25726 0.7223,-0.44525 0.38589,-0.188 0.82124,-0.28694 0.43536,-0.099 0.94988,-0.099 0.83113,0 1.47428,0.28694 0.64314,0.27705 1.0686,0.79156 0.43536,0.50462 0.65304,1.21703 0.22757,0.70251 0.22757,1.55343 l 0,6.46111 -2.44394,0 0,-6.46111 q 0,-0.93008 -0.43536,-1.4347 -0.42546,-0.51451 -1.28628,-0.51451 -0.63325,0 -1.18734,0.28694 -0.55409,0.28694 -1.04882,0.78166 l 0,7.34172 -2.44394,0 z m -6.9521,-10.3101 q 1.13787,0 2.05806,0.3661 0.93008,0.36609 1.58312,1.03892 0.65304,0.67283 1.00924,1.64249 0.3562,0.96966 0.3562,2.16689 0,1.20713 -0.3562,2.1768 -0.3562,0.96966 -1.00924,1.65238 -0.65304,0.68272 -1.58312,1.04882 -0.92019,0.36609 -2.05806,0.36609 -1.13787,0 -2.06795,-0.36609 -0.93008,-0.3661 -1.59301,-1.04882 -0.65304,-0.68272 -1.01914,-1.65238 -0.3562,-0.96967 -0.3562,-2.1768 0,-1.19723 0.3562,-2.16689 0.3661,-0.96966 1.01914,-1.64249 0.66293,-0.67283 1.59301,-1.03892 0.93008,-0.3661 2.06795,-0.3661 z m 0,8.57854 q 1.2665,0 1.87006,-0.85093 0.61346,-0.85093 0.61346,-2.49342 0,-1.64248 -0.61346,-2.50331 -0.60356,-0.86082 -1.87006,-0.86082 -1.28628,0 -1.89974,0.87072 -0.61346,0.86082 -0.61346,2.49341 0,1.6326 0.61346,2.49342 0.61346,0.85093 1.89974,0.85093 z m -8.69077,1.88985 q -1.31597,0 -2.02838,-0.74209 -0.7124,-0.75198 -0.7124,-2.06795 l 0,-5.66955 -1.02903,0 q -0.19789,0 -0.34631,-0.12863 -0.13852,-0.12863 -0.13852,-0.38589 l 0,-0.96966 1.63259,-0.26715 0.51452,-2.77046 q 0.0396,-0.19789 0.1781,-0.30673 0.14842,-0.10884 0.3661,-0.10884 l 1.26649,0 0,3.19592 2.67152,0 0,1.74144 -2.67152,0 0,5.50134 q 0,0.47494 0.23747,0.74209 0.23747,0.26715 0.63325,0.26715 0.22757,0 0.37599,-0.0495 0.15831,-0.0594 0.26715,-0.11874 0.11874,-0.0594 0.20779,-0.10884 0.0891,-0.0594 0.1781,-0.0594 0.10884,0 0.1781,0.0594 0.0693,0.0495 0.14842,0.15832 l 0.73219,1.18734 q -0.5343,0.44525 -1.22692,0.67282 -0.69261,0.22758 -1.4347,0.22758 z M 126.56194,12.82071 q 0.65304,0 1.22692,0.13853 0.57388,0.12862 1.04882,0.38588 l 2.91888,0 0,0.9103 q 0,0.22757 -0.11874,0.3562 -0.11873,0.12863 -0.40567,0.1781 l -0.91029,0.16821 q 0.0989,0.25725 0.14841,0.54419 0.0594,0.28694 0.0594,0.60357 0,0.75198 -0.30673,1.36544 -0.29684,0.60356 -0.83114,1.02903 -0.52441,0.42546 -1.2566,0.66293 -0.7223,0.22757 -1.57323,0.22757 -0.57388,0 -1.11808,-0.10884 -0.47493,0.28694 -0.47493,0.64315 0,0.30673 0.27704,0.45514 0.28695,0.13853 0.74209,0.19789 0.46504,0.0594 1.04882,0.0792 0.58378,0.01 1.19723,0.0594 0.61346,0.0495 1.19724,0.1781 0.58378,0.11873 1.03892,0.38588 0.46504,0.26715 0.74209,0.7322 0.28694,0.45514 0.28694,1.17744 0,0.67283 -0.33641,1.30608 -0.32652,0.63324 -0.95977,1.12797 -0.62335,0.49473 -1.53365,0.79156 -0.91029,0.30673 -2.07784,0.30673 -1.15766,0 -2.00859,-0.22757 -0.85092,-0.21768 -1.41491,-0.59367 -0.55409,-0.3661 -0.83114,-0.85093 -0.27705,-0.48483 -0.27705,-1.00924 0,-0.7124 0.43536,-1.19724 0.43536,-0.48483 1.20713,-0.77177 -0.37599,-0.20778 -0.60356,-0.55409 -0.22758,-0.34631 -0.22758,-0.9004 0,-0.22757 0.0792,-0.46504 0.0792,-0.24736 0.23747,-0.48483 0.1682,-0.23747 0.41557,-0.44525 0.24736,-0.21768 0.58377,-0.38589 -0.77177,-0.41557 -1.21702,-1.10818 -0.43536,-0.69262 -0.43536,-1.6227 0,-0.75198 0.29684,-1.35555 0.30673,-0.61346 0.84103,-1.03892 0.5442,-0.43536 1.27639,-0.66293 0.74209,-0.22758 1.6128,-0.22758 z m 2.68141,10.78501 q 0,-0.29683 -0.1781,-0.48483 -0.1781,-0.18799 -0.48483,-0.28694 -0.30673,-0.10884 -0.7223,-0.15831 -0.40567,-0.0495 -0.87071,-0.0693 -0.45515,-0.0297 -0.94988,-0.0495 -0.48483,-0.0297 -0.93997,-0.089 -0.41557,0.22758 -0.67283,0.5442 -0.24736,0.30673 -0.24736,0.71241 0,0.26715 0.12863,0.49472 0.13852,0.23747 0.42546,0.40568 0.29684,0.1682 0.76188,0.25725 0.46504,0.099 1.13787,0.099 0.68272,0 1.17744,-0.10884 0.49473,-0.099 0.81135,-0.28694 0.32652,-0.1781 0.47494,-0.43536 0.14841,-0.24736 0.14841,-0.5442 z m -2.68141,-5.77839 q 0.45515,0 0.79156,-0.11873 0.33642,-0.12863 0.5541,-0.34631 0.22757,-0.21768 0.33641,-0.52441 0.11873,-0.30673 0.11873,-0.67283 0,-0.75198 -0.45514,-1.18734 -0.44526,-0.44525 -1.34566,-0.44525 -0.9004,0 -1.35554,0.44525 -0.44526,0.43536 -0.44526,1.18734 0,0.35621 0.10884,0.66294 0.11874,0.30673 0.33642,0.5343 0.22757,0.21768 0.56398,0.34631 0.34631,0.11873 0.79156,0.11873 z m -14.75981,5.32324 0,-10.15176 1.49407,0 q 0.47493,0 0.62335,0.44526 l 0.16821,0.80145 q 0.30673,-0.31662 0.64314,-0.57388 0.34631,-0.25726 0.7223,-0.44525 0.38588,-0.188 0.82124,-0.28694 0.43536,-0.099 0.94987,-0.099 0.83114,0 1.47429,0.28694 0.64314,0.27705 1.0686,0.79156 0.43536,0.50462 0.65304,1.21703 0.22757,0.70251 0.22757,1.55343 l 0,6.46111 -2.44394,0 0,-6.46111 q 0,-0.93008 -0.43536,-1.4347 -0.42546,-0.51451 -1.28628,-0.51451 -0.63325,0 -1.18734,0.28694 -0.5541,0.28694 -1.04882,0.78166 l 0,7.34172 -2.44394,0 z m -2.77016,-10.15176 0,10.15176 -2.44394,0 0,-10.15176 2.44394,0 z m 0.3661,-2.95845 q 0,0.31662 -0.12863,0.59367 -0.12863,0.27704 -0.3463,0.48483 -0.20779,0.20778 -0.49473,0.33641 -0.28694,0.11874 -0.61346,0.11874 -0.31662,0 -0.60356,-0.11874 -0.27705,-0.12863 -0.48483,-0.33641 -0.20779,-0.20779 -0.33642,-0.48483 -0.11873,-0.27705 -0.11873,-0.59367 0,-0.32652 0.11873,-0.61346 0.12863,-0.28694 0.33642,-0.49473 0.20778,-0.20778 0.48483,-0.32652 0.28694,-0.12862 0.60356,-0.12862 0.32652,0 0.61346,0.12862 0.28694,0.11874 0.49473,0.32652 0.21767,0.20779 0.3463,0.49473 0.12863,0.28694 0.12863,0.61346 z m -19.626683,13.11021 0,-10.15176 1.49407,0 q 0.474936,0 0.623354,0.44526 l 0.158312,0.75198 q 0.267151,-0.29684 0.554092,-0.5442 0.296835,-0.24736 0.623354,-0.42546 0.336413,-0.1781 0.712404,-0.27705 0.385886,-0.10884 0.841033,-0.10884 0.959767,0 1.573226,0.52441 0.623354,0.51451 0.930085,1.37534 0.23747,-0.50462 0.59367,-0.86083 0.35621,-0.36609 0.78167,-0.59367 0.42546,-0.22757 0.9004,-0.33641 0.484833,-0.10884 0.969663,-0.10884 0.84103,0 1.49407,0.25726 0.65304,0.25726 1.09829,0.75198 0.44525,0.49473 0.67283,1.20713 0.23746,0.7124 0.23746,1.63259 l 0,6.46111 -2.44394,0 0,-6.46111 q 0,-0.96966 -0.42546,-1.45449 -0.42546,-0.49472 -1.246713,-0.49472 -0.37599,0 -0.70251,0.12862 -0.31662,0.12863 -0.56399,0.376 -0.23746,0.23746 -0.37599,0.60356 -0.13852,0.3661 -0.13852,0.84103 l 0,6.46111 -2.453841,0 0,-6.46111 q 0,-1.01913 -0.415569,-1.48417 -0.405675,-0.46504 -1.20713,-0.46504 -0.524409,0 -0.98945,0.26715 -0.455147,0.25725 -0.850928,0.7124 l 0,7.43077 -2.443942,0 z m -6.95202,-10.31 q 1.137868,0 2.058057,0.3661 0.930083,0.36609 1.583121,1.03892 0.653037,0.67283 1.009239,1.64249 0.356202,0.96966 0.356202,2.16689 0,1.20713 -0.356202,2.1768 -0.356202,0.96966 -1.009239,1.65238 -0.653038,0.68272 -1.583121,1.04882 -0.920189,0.36609 -2.058057,0.36609 -1.137868,0 -2.067951,-0.36609 -0.930083,-0.3661 -1.593015,-1.04882 -0.653037,-0.68272 -1.019134,-1.65238 -0.356202,-0.96967 -0.356202,-2.1768 0,-1.19723 0.356202,-2.16689 0.366097,-0.96966 1.019134,-1.64249 0.662932,-0.67283 1.593015,-1.03892 0.930083,-0.3661 2.067951,-0.3661 z m 0,8.57854 q 1.266497,0 1.870061,-0.85093 0.61346,-0.85093 0.61346,-2.49342 0,-1.64248 -0.61346,-2.50331 -0.603564,-0.86082 -1.870061,-0.86082 -1.286285,0 -1.899744,0.87072 -0.61346,0.86082 -0.61346,2.49341 0,1.6326 0.61346,2.49342 0.613459,0.85093 1.899744,0.85093 z m -11.28592,-8.5785 q 1.137868,0 2.058057,0.3661 0.930083,0.36609 1.58312,1.03892 0.653038,0.67283 1.00924,1.64249 0.356202,0.96966 0.356202,2.16689 0,1.20713 -0.356202,2.1768 -0.356202,0.96966 -1.00924,1.65238 -0.653037,0.68272 -1.58312,1.04882 -0.920189,0.36609 -2.058057,0.36609 -1.137868,0 -2.067951,-0.36609 -0.930083,-0.3661 -1.593015,-1.04882 -0.653037,-0.68272 -1.019134,-1.65238 -0.356202,-0.96967 -0.356202,-2.1768 0,-1.19723 0.356202,-2.16689 0.366097,-0.96966 1.019134,-1.64249 0.662932,-0.67283 1.593015,-1.03892 0.930083,-0.3661 2.067951,-0.3661 z m 0,8.57854 q 1.266497,0 1.870061,-0.85093 0.61346,-0.85093 0.61346,-2.49342 0,-1.64248 -0.61346,-2.50331 -0.603564,-0.86082 -1.870061,-0.86082 -1.286285,0 -1.899745,0.87072 -0.613459,0.86082 -0.613459,2.49341 0,1.6326 0.613459,2.49342 0.61346,0.85093 1.899745,0.85093 z m -7.103944,-12.9717 0,14.70323 -2.443942,0 0,-14.70323 2.443942,0 z m -15.33432,14.70323 0,-14.30745 4.937357,0 q 1.40502,0 2.39447,0.26715 0.999345,0.26716 1.632593,0.76188 0.643143,0.49473 0.939978,1.19724 0.296835,0.70251 0.296835,1.58312 0,0.50462 -0.148417,0.96966 -0.148418,0.45514 -0.465042,0.86082 -0.30673,0.39578 -0.79156,0.7223 -0.474936,0.32652 -1.137868,0.55409 2.948562,0.66293 2.948562,3.18603 0,0.91029 -0.346308,1.68207 -0.346307,0.77177 -1.009239,1.33575 -0.662932,0.5541 -1.632593,0.87072 -0.969661,0.31662 -2.216369,0.31662 l -5.402399,0 z m 2.661622,-6.27311 0,4.19527 2.701199,0 q 0.742088,0 1.236813,-0.1781 0.50462,-0.1781 0.801455,-0.47494 0.306729,-0.29683 0.435358,-0.69261 0.138523,-0.39578 0.138523,-0.84104 0,-0.46504 -0.148418,-0.83114 -0.148417,-0.37599 -0.465041,-0.63324 -0.316624,-0.26715 -0.81135,-0.40568 -0.494725,-0.13852 -1.197234,-0.13852 l -2.691305,0 z m 0,-1.84038 2.127318,0 q 1.355547,0 2.058057,-0.49472 0.702509,-0.49473 0.702509,-1.57323 0,-1.11808 -0.633248,-1.59302 -0.633248,-0.47493 -1.978901,-0.47493 l -2.275735,0 0,4.1359 z m -16.21313,-4.87182 2.473268,-2.47327 -2.760928,0 0,-2.76072 -2.473056,2.47328 -2.500179,-2.50018 0,7.80872 7.808719,0 -2.547831,-2.54783 z m 6.452192,7.42828 -3.904359,3.90436 3.904359,3.90436 -7.808718,0 3.904359,3.90436 -7.808719,0 -3.904359,-3.90436 3.904359,-3.90436 -3.904359,-3.90436 3.904359,-3.90436 7.808719,0 -3.904359,3.90436 7.808718,0 z m -3.904359,12.68917 -7.808719,0 0,7.80872 2.547831,-2.54783 2.473271,2.47327 0,-2.76093 2.760716,0 -2.473271,-2.47306 2.500178,-2.50017 z m -12.68917,11.71308 -3.90436,-3.90436 -3.904359,3.90436 0,-7.80872 -3.90436,3.90436 0,-7.80872 3.90436,-3.90436 3.904359,3.90436 3.90436,-3.90436 3.904359,3.90436 0,7.80872 -3.904359,-3.90436 0,7.80872 z m -12.68917,-11.71308 -7.808719,0 2.547831,2.54783 -2.473269,2.47327 2.760822,0 0,2.76072 2.473269,-2.47327 c 0,0 2.500066,2.50017 2.500066,2.50017 l 0,-7.80872 z m -11.71308,-4.88045 3.904359,-3.90436 -3.904359,-3.90436 7.808719,0 -3.904359,-3.90436 7.808719,0 3.904359,3.90436 -3.904359,3.90436 3.904359,3.90436 -3.904359,3.90436 -7.808719,0 3.904359,-3.90436 -7.808719,0 z M 10.165333,7.45232 7.692169,4.97905 l 0,2.76093 -2.760822,0 2.47327,2.47306 -2.500172,2.50017 7.808718,0 0,-7.80872 -2.547831,2.54783 z m 7.428283,-6.45219 3.904359,3.90436 3.90436,-3.90436 0,7.80872 3.904359,-3.90436 0,7.80872 -3.904359,3.90435 -3.90436,-3.90435 -3.904359,3.90435 -3.90436,-3.90435 0,-7.80872 3.90436,3.90436 0,-7.80872 z"
     id="path3" />
</svg>
