<svg xmlns:rdf="http://www.w3.org/1999/02/22-rdf-syntax-ns#" xmlns="http://www.w3.org/2000/svg" version="1.1" xmlns:cc="http://creativecommons.org/ns#" xmlns:dc="http://purl.org/dc/elements/1.1/" viewBox="0 0 1792 1792">
 <path style="fill:#ffffff" d="m1792 918.4404q0 300.1674-170.9167 539.9426-170.9166 239.7751-441.5833 331.8583-31.5 5.9795-46.0833-8.3712-14.5834-14.3506-14.5834-35.8766v-252.3319q0-116.0009-60.6666-169.8158 66.5-7.1753 119.5833-21.526 53.0833-14.3506 109.6667-46.6395 56.5833-32.2889 94.5-79.5264 37.9166-47.2375 61.8333-125.5681 23.9167-78.3305 23.9167-179.9808 0-144.7022-92.1667-246.3525 43.1667-108.8256-9.3333-243.9608-32.6667-10.76297-94.5 13.15475-61.8334 23.91772-107.3334 52.61898l-44.333 28.7007q-108.5-31.093-224-31.093t-224 31.09303q-18.6667-13.1547-49.5833-32.2889-30.9167-19.1342-97.4167-46.0416t-100.3333-16.1445q-51.3334 135.1352-8.1667 243.9608-92.16667 101.6503-92.16667 246.3525 0 101.6503 23.91667 179.3829t61.25 125.568q37.33333 47.8355 93.91667 80.1244 56.58333 32.2889 109.6667 46.6395 53.08334 14.3507 119.5833 21.526-46.6667 43.052-57.1667 123.176-24.5 11.9589-52.5 17.9383-28 5.9795-66.5 5.9795t-76.41667-25.7116q-37.91666-25.7115-64.75-74.7429-22.1666-38.268-56.5833-62.186-34.4167-23.917-57.75-28.701l-23.33333-3.5877q-24.5 0-33.83334 5.3815-9.33333 5.3815-5.83333 13.7527t10.5 16.7424 15.16667 14.3507l8.16666 5.9794q25.66667 11.9589 50.75 45.4437 25.08334 33.4848 36.75 60.9901l11.6666 27.506q15.16667 45.4437 51.33333 73.547 36.16667 28.1033 78.16667 35.8766t81.08333 8.3712q39.08334 0.5979 64.75-4.1856l26.83334-4.7835q0 45.4436 0.58333 106.4338t0.58333 64.5778q0 21.526-15.16666 35.8766-15.1666 14.351-46.6666 8.371-270.6667-92.083-441.5833-331.858-170.9167-239.775-170.9167-539.9426 0-249.9401 120.1667-461.014 120.1666-211.0739 326.0833-334.2502 205.9167-123.1762 449.75-123.1762t449.75 123.1763 326.0833 334.2501q120.167 211.0739 120.167 461.014z"/>
</svg>
