<svg xmlns:rdf="http://www.w3.org/1999/02/22-rdf-syntax-ns#" xmlns="http://www.w3.org/2000/svg" version="1.1" xml:space="preserve" enable-background="new 0 0 100 100" y="0px" x="0px" xmlns:cc="http://creativecommons.org/ns#" xmlns:dc="http://purl.org/dc/elements/1.1/" viewBox="0 0 12 16"><rect style="fill:#005ca9" transform="rotate(45)" rx="0" ry="0" height="3" width="18" y="-.9859127" x=".1170093"/><path style="fill:#005ca9" d="m6 0c-0.963565 0-1.870869 0.209653-2.677734 0.5742188l2.978515 2.978515c0.985817 0.128688 1.744029 0.870863 1.78711 1.78711l3.082029 3.082031c0.18434-0.400546 0.35135-0.796404 0.48047-1.179687 0.20248-0.51152 0.32143-1.057674 0.34375-1.626954 0.0036-0.065924 0.00586-0.130993 0.00586-0.195312 0.00018-2.992798-2.686242-5.419922-6-5.419922zm-5.896484 4.427734c-0.06587763 0.321601-0.1035156 0.653366-0.1035156 0.992188 0 0.06416 0.002759375 0.129393 0.005859375 0.195312 0.02248 0.569279 0.141627 1.115434 0.34375 1.626954 1.280099 3.800322 5.650391 8.757812 5.650391 8.757812s1.186032-1.35234 2.501953-3.17578l-8.398437-8.396486z"/></svg>
