<svg xmlns:rdf="http://www.w3.org/1999/02/22-rdf-syntax-ns#" xmlns="http://www.w3.org/2000/svg" version="1.1" xml:space="preserve" enable-background="new 0 0 100 100" y="0px" x="0px" xmlns:cc="http://creativecommons.org/ns#" xmlns:dc="http://purl.org/dc/elements/1.1/" viewBox="0 0 12 16"><path style="fill:#005ca9" d="m6.000244 0c-3.313756 0-6.000244 2.426263-6.000244 5.419063 0 0.06416 0.002 0.129706 0.0051 0.195625 0.02248 0.569279 0.14145 1.11598 0.343573 1.6275 1.280099 3.800322 5.651501 8.757812 5.651501 8.757812s4.370877-4.957181 5.651136-8.757501c0.202482-0.51152 0.321252-1.058532 0.343572-1.627812 0.0036-0.065927 0.00512-0.13131 0.00512-0.195629 0.00018-2.992798-2.686143-5.419061-5.999901-5.419061zm0 3.525c1.158311 0 2.097422 0.848427 2.097422 1.894375 0 1.046062-0.939111 1.894061-2.097422 1.894061-1.158183 0-2.097421-0.847999-2.097421-1.894061 0-1.04595 0.93924-1.894375 2.097421-1.894375z"/></svg>
