<svg xmlns:rdf="http://www.w3.org/1999/02/22-rdf-syntax-ns#" xmlns="http://www.w3.org/2000/svg" enable-background="new 0 0 100 100" xml:space="preserve" height="52" width="36" version="1.1" y="0px" x="0px" xmlns:cc="http://creativecommons.org/ns#" xmlns:dc="http://purl.org/dc/elements/1.1/" viewBox="0 0 36.000004 52.000001"><path style="stroke:#005ca9;fill:#49b2ff" d="m18.0005 0.5031438c-9.665006 0-17.5005 7.689209-17.5005 17.17387 0 0.203333 0.005838 0.411055 0.0151387 0.619966 0.0656183 1.804138 0.4125444 3.536717 1.002076 5.157805 3.733525 12.04381 16.48329 27.7549 16.48329 27.7549s12.74824-15.71009 16.48228-27.7539c0.590565-1.621088 0.936974-3.354657 1.002076-5.158795 0.01034-0.20892 0.01514-0.41613 0.01514-0.61997 0.00051-9.484657-7.83449-17.17387-17.4995-17.17387zm0 11.17128c3.378363 0 6.117405 2.688798 6.117405 6.003574 0 3.315138-2.739042 6.002583-6.117405 6.002583-3.377996 0-6.117407-2.687445-6.117407-6.002583 0-3.314776 2.739411-6.003574 6.117407-6.003574z"/></svg>
