<svg xmlns:rdf="http://www.w3.org/1999/02/22-rdf-syntax-ns#" xmlns="http://www.w3.org/2000/svg" version="1.1" xml:space="preserve" enable-background="new 0 0 100 100" y="0px" x="0px" xmlns:cc="http://creativecommons.org/ns#" xmlns:dc="http://purl.org/dc/elements/1.1/" viewBox="0 0 16 17"><rect style="fill:#005ca9" transform="matrix(.7070974 .7071162 -.7070974 .7071162 0 0)" rx="0" ry="0" height="1.999974" width="19.52747" y="-1.041772" x="1.806741"/><path style="fill:#005ca9" d="m9.242222 0.9999995c-1.550415 0-2.958462 0.536394-4.023331 1.408203l2.615165 2.617188c0.3729019-0.3075954 0.8634971-0.5 1.408166-0.5 1.15828 0 2.097601 0.8485833 2.097601 1.894531 0 0.5612406-0.27559 1.059418-0.70506 1.40625l3.029217 3.029297c0.501913-0.8836889 0.946594-1.776498 1.228483-2.613281 0.202477-0.51152 0.321422-1.057673 0.343741-1.626953 0.0036-0.065924 0.0059-0.1309935 0.0059-0.1953125 0.000177-2.992798-2.686171-5.419922-5.999841-5.419922zm-5.982263 5.107422c-0.00657 0.1038937-0.017578 0.2071202-0.017578 0.3125 0 0.06416 0.00276 0.1293935 0.00586 0.1953125 0.02248 0.569279 0.1416233 1.115433 0.3437409 1.626953 1.280065 3.800319 5.650241 8.757812 5.650241 8.757812s1.005752-1.157068 2.175723-2.734375l-8.157991-8.158209z"/></svg>
