<svg xmlns:rdf="http://www.w3.org/1999/02/22-rdf-syntax-ns#" xmlns="http://www.w3.org/2000/svg" version="1.1" xmlns:cc="http://creativecommons.org/ns#" xmlns:dc="http://purl.org/dc/elements/1.1/" viewBox="0 0 20 20">
 <g transform="translate(0 -1032.362)">
  <path style="fill:#ffffff" d="m10 0a10 10 0 0 0 -10 10 10 10 0 0 0 10 10 10 10 0 0 0 5.64844 -1.76172c-0.17753-0.08649-0.34628-0.19589-0.49414-0.34375l-2.1836-2.18555c-2.16371 1.26392-4.501029 0.91672-5.43945 0.23438-2.485152-1.8078-4.886845-5.65456-4.105469-8.482422 0.084381 0.163338 0.184984 0.319749 0.322266 0.457031l4.193359 4.193361c0.712514 0.71251 1.859752 0.71251 2.572264 0l1.04492-1.04492c0.71252-0.71252 0.71252-1.859755 0-2.572269l-4.193356-4.19336c-0.081678-0.081678-0.169925-0.149938-0.261718-0.21289 0.293215-0.065782 0.591479-0.112366 0.90039-0.121094 1.900792-0.053708 4.111034 0.940372 6.773434 2.603515 1.47634 0.922338 2.08023 3.596188 0.96485 6.056638l2.33984 2.33985c0.13349 0.13348 0.23294 0.28508 0.31641 0.44336a10 10 0 0 0 1.60156 -5.41016 10 10 0 0 0 -10 -10z" transform="translate(0 1032.362)"/>
 </g>
</svg>
